<?xml version="1.0" encoding="UTF-8" standalone="no"?>
<svg
   xmlns:dc="http://purl.org/dc/elements/1.1/"
   xmlns:cc="http://creativecommons.org/ns#"
   xmlns:rdf="http://www.w3.org/1999/02/22-rdf-syntax-ns#"
   xmlns:svg="http://www.w3.org/2000/svg"
   xmlns="http://www.w3.org/2000/svg"
   xmlns:sodipodi="http://sodipodi.sourceforge.net/DTD/sodipodi-0.dtd"
   xmlns:inkscape="http://www.inkscape.org/namespaces/inkscape"
   width="793.700787402"
   height="1122.51968504"
   version="1.1"
   id="svg77"
   sodipodi:docname="dé 6 faces.svg"
   inkscape:version="0.92.5 (2060ec1f9f, 2020-04-08)">
  <metadata
     id="metadata81">
    <rdf:RDF>
      <cc:Work
         rdf:about="">
        <dc:format>image/svg+xml</dc:format>
        <dc:type
           rdf:resource="http://purl.org/dc/dcmitype/StillImage" />
        <dc:title></dc:title>
      </cc:Work>
    </rdf:RDF>
  </metadata>
  <sodipodi:namedview
     pagecolor="#ffffff"
     bordercolor="#666666"
     borderopacity="1"
     objecttolerance="10"
     gridtolerance="10"
     guidetolerance="10"
     inkscape:pageopacity="0"
     inkscape:pageshadow="2"
     inkscape:window-width="1366"
     inkscape:window-height="715"
     id="namedview79"
     showgrid="false"
     inkscape:zoom="0.42"
     inkscape:cx="396.8504"
     inkscape:cy="265.09504"
     inkscape:window-x="-8"
     inkscape:window-y="126"
     inkscape:window-maximized="1"
     inkscape:current-layer="g75" />
  <desc
     id="desc2">C:\Users\admin\AppData\Local\Temp\eo0ym97g.dxf - scale = 1.000000, origin = (0.000000, 0.000000), method = manual</desc>
  <defs
     id="defs17">
    <marker
       id="DistanceX"
       orient="auto"
       refX="0.0"
       refY="0.0"
       style="overflow:visible">
      <path
         d="M 3,-3 L -3,3 M 0,-5 L  0,5"
         style="stroke:#000000; stroke-width:0.5"
         id="path4" />
    </marker>
    <pattern
       height="8"
       id="Hatch"
       patternUnits="userSpaceOnUse"
       width="8"
       x="0"
       y="0">
      <path
         d="M8 4 l-4,4"
         linecap="square"
         stroke="#000000"
         stroke-width="0.25"
         id="path7" />
      <path
         d="M6 2 l-4,4"
         linecap="square"
         stroke="#000000"
         stroke-width="0.25"
         id="path9" />
      <path
         d="M4 0 l-4,4"
         linecap="square"
         stroke="#000000"
         stroke-width="0.25"
         id="path11" />
    </pattern>
    <symbol
       id="*Model_Space" />
    <symbol
       id="*Paper_Space" />
    <symbol
       id="*Paper_Space0" />
  </defs>
  <g
     inkscape:groupmode="layer"
     inkscape:label="0"
     id="g19" />
  <g
     inkscape:groupmode="layer"
     inkscape:label="layer 1"
     id="g75">
    <path
       d="m 34.478854,960.31569 c 0,0 8.73373,0 8.73373,0 0,0 0,0 0,14.5561 0,0 0,0 0,0 23.28945,0 23.28945,0 23.28945,0 0,0 0,-14.5561 0,-14.5561 0,0 0,0 23.28982,0 0,0 0,0 0,0 0,14.5561 0,14.5561 0,14.5561 0,0 23.289446,0 23.289446,0 0,0 0,0 0,-14.5561 0,0 0,0 0,0 8.73374,0 8.73374,0 8.73374,0 0,0 0,-8.7337 0,-8.7337 0,0 0,0 14.55571,0 0,0 0,0 0,0 0,-23.2895 0,-23.2895 0,-23.2895 0,0 -14.55571,0 -14.55571,0 0,0 0,0 0,-23.2894 0,0 0,0 0,0 14.55571,0 14.55571,0 14.55571,0 0,0 0,-23.2899 0,-23.2899 0,0 0,0 -14.55571,0 0,0 0,0 0,0 0,-8.7333 0,-8.7333 0,-8.7333 0,0 -8.73374,0 -8.73374,0 0,0 0,0 0,-14.5561 0,0 0,0 0,0 -23.289446,0 -23.289446,0 -23.289446,0 0,0 0,14.5561 0,14.5561 0,0 0,0 -23.28982,0 0,0 0,0 0,0 0,-14.5561 0,-14.5561 0,-14.5561 0,0 -23.28945,0 -23.28945,0 0,0 0,0 0,14.5561 0,0 0,0 0,0 -8.73373,0 -8.73373,0 -8.73373,0 0,0 0,8.7333 0,8.7333 0,0 0,0 -14.55572,0 0,0 0,0 0,0 0,23.2899 0,23.2899 0,23.2899 0,0 14.55572,0 14.55572,0 0,0 0,0 0,23.2894 0,0 0,0 0,0 -14.55572,0 -14.55572,0 -14.55572,0 0,0 0,23.2895 0,23.2895 0,0 0,0 14.55572,0 0,0 0,0 0,0 z"
       style="fill:none;stroke:#000000;stroke-width:0.5"
       id="path21"
       inkscape:connector-curvature="0" />
    <path
       d="m 55.836964,876.29299 c 0,0 -1.15087,0.057 -1.15087,0.057 0,0 0,0 -1.13159,0.1686 0,0 0,0 0,0 -1.10438,0.2777 -1.10438,0.2777 -1.10438,0.2777 0,0 -1.06923,0.3829 -1.06923,0.3829 0,0 0,0 -1.02727,0.4857 0,0 0,0 0,0 -0.97701,0.5843 -0.97701,0.5843 -0.97701,0.5843 0,0 -0.91956,0.6807 -0.91956,0.6807 0,0 0,0 -0.85417,0.7737 0,0 0,0 0,0 -0.77367,0.8541 -0.77367,0.8541 -0.77367,0.8541 0,0 -0.68069,0.9196 -0.68069,0.9196 0,0 0,0 -0.58432,0.977 0,0 0,0 0,0 -0.48567,1.0273 -0.48567,1.0273 -0.48567,1.0273 0,0 -0.38287,1.0692 -0.38287,1.0692 0,0 0,0 -0.27779,1.1044 0,0 0,0 0,0 -0.16857,1.1316 -0.16857,1.1316 -0.16857,1.1316 0,0 -0.0571,1.1508 -0.0571,1.1508 0,0 0,0 0.0571,1.1509 0,0 0,0 0,0 0.16857,1.1316 0.16857,1.1316 0.16857,1.1316 0,0 0.27779,1.1044 0.27779,1.1044 0,0 0,0 0.38287,1.0692 0,0 0,0 0,0 0.48567,1.0273 0.48567,1.0273 0.48567,1.0273 0,0 0.58432,0.977 0.58432,0.977 0,0 0,0 0.68069,0.9195 0,0 0,0 0,0 0.77367,0.8542 0.77367,0.8542 0.77367,0.8542 0,0 0.85417,0.7737 0.85417,0.7737 0,0 0,0 0.91956,0.6807 0,0 0,0 0,0 0.97701,0.5843 0.97701,0.5843 0.97701,0.5843 0,0 1.02727,0.4857 1.02727,0.4857 0,0 0,0 1.06923,0.3828 0,0 0,0 0,0 1.10438,0.2778 1.10438,0.2778 1.10438,0.2778 0,0 1.13159,0.1686 1.13159,0.1686 0,0 0,0 1.15087,0.057 0,0 0,0 0,0 1.15086,-0.057 1.15086,-0.057 1.15086,-0.057 0,0 1.13159,-0.1686 1.13159,-0.1686 0,0 0,0 1.10438,-0.2778 0,0 0,0 0,0 1.06923,-0.3828 1.06923,-0.3828 1.06923,-0.3828 0,0 1.02727,-0.4857 1.02727,-0.4857 0,0 0,0 0.97701,-0.5843 0,0 0,0 0,0 0.91956,-0.6807 0.91956,-0.6807 0.91956,-0.6807 0,0 0.85417,-0.7737 0.85417,-0.7737 0,0 0,0 0.77367,-0.8542 0,0 0,0 0,0 0.6807,-0.9195 0.6807,-0.9195 0.6807,-0.9195 0,0 0.58431,-0.977 0.58431,-0.977 0,0 0,0 0.48567,-1.0273 0,0 0,0 0,0 0.38287,-1.0692 0.38287,-1.0692 0.38287,-1.0692 0,0 0.27779,-1.1044 0.27779,-1.1044 0,0 0,0 0.16857,-1.1316 0,0 0,0 0,0 0.0571,-1.1509 0.0571,-1.1509 0.0571,-1.1509 0,0 -0.0571,-1.1508 -0.0571,-1.1508 0,0 0,0 -0.16857,-1.1316 0,0 0,0 0,0 -0.27779,-1.1044 -0.27779,-1.1044 -0.27779,-1.1044 0,0 -0.38287,-1.0692 -0.38287,-1.0692 0,0 0,0 -0.48567,-1.0273 0,0 0,0 0,0 -0.58431,-0.977 -0.58431,-0.977 -0.58431,-0.977 0,0 -0.6807,-0.9196 -0.6807,-0.9196 0,0 0,0 -0.77367,-0.8541 0,0 0,0 0,0 -0.85417,-0.7737 -0.85417,-0.7737 -0.85417,-0.7737 0,0 -0.91956,-0.6807 -0.91956,-0.6807 0,0 0,0 -0.97701,-0.5843 0,0 0,0 0,0 -1.02727,-0.4857 -1.02727,-0.4857 -1.02727,-0.4857 0,0 -1.06923,-0.3829 -1.06923,-0.3829 0,0 0,0 -1.10438,-0.2777 0,0 0,0 0,0 -1.13159,-0.1686 -1.13159,-0.1686 -1.13159,-0.1686 0,0 -1.15086,-0.057 -1.15086,-0.057 0,0 0,0 0,0 z"
       style="fill:none;stroke:#000000;stroke-width:0.5"
       id="path23"
       inkscape:connector-curvature="0" />
    <path
       d="m 55.836964,933.51539 c 0,0 -1.15087,0.057 -1.15087,0.057 0,0 0,0 -1.13159,0.1686 0,0 0,0 0,0 -1.10438,0.2778 -1.10438,0.2778 -1.10438,0.2778 0,0 -1.06923,0.3828 -1.06923,0.3828 0,0 0,0 -1.02727,0.4857 0,0 0,0 0,0 -0.97701,0.5843 -0.97701,0.5843 -0.97701,0.5843 0,0 -0.91956,0.6807 -0.91956,0.6807 0,0 0,0 -0.85417,0.7737 0,0 0,0 0,0 -0.77367,0.8542 -0.77367,0.8542 -0.77367,0.8542 0,0 -0.68069,0.9195 -0.68069,0.9195 0,0 0,0 -0.58432,0.977 0,0 0,0 0,0 -0.48567,1.0273 -0.48567,1.0273 -0.48567,1.0273 0,0 -0.38287,1.0692 -0.38287,1.0692 0,0 0,0 -0.27779,1.1044 0,0 0,0 0,0 -0.16857,1.1316 -0.16857,1.1316 -0.16857,1.1316 0,0 -0.0571,1.1509 -0.0571,1.1509 0,0 0,0 0.0571,1.1508 0,0 0,0 0,0 0.16857,1.1316 0.16857,1.1316 0.16857,1.1316 0,0 0.27779,1.1044 0.27779,1.1044 0,0 0,0 0.38287,1.0692 0,0 0,0 0,0 0.48567,1.0273 0.48567,1.0273 0.48567,1.0273 0,0 0.58432,0.977 0.58432,0.977 0,0 0,0 0.68069,0.9196 0,0 0,0 0,0 0.77367,0.8541 0.77367,0.8541 0.77367,0.8541 0,0 0.85417,0.7737 0.85417,0.7737 0,0 0,0 0.91956,0.6807 0,0 0,0 0,0 0.97701,0.5843 0.97701,0.5843 0.97701,0.5843 0,0 1.02727,0.4857 1.02727,0.4857 0,0 0,0 1.06923,0.3829 0,0 0,0 0,0 1.10438,0.2778 1.10438,0.2778 1.10438,0.2778 0,0 1.13159,0.1685 1.13159,0.1685 0,0 0,0 1.15087,0.057 0,0 0,0 0,0 1.15086,-0.057 1.15086,-0.057 1.15086,-0.057 0,0 1.13159,-0.1685 1.13159,-0.1685 0,0 0,0 1.10438,-0.2778 0,0 0,0 0,0 1.06923,-0.3829 1.06923,-0.3829 1.06923,-0.3829 0,0 1.02727,-0.4857 1.02727,-0.4857 0,0 0,0 0.97701,-0.5843 0,0 0,0 0,0 0.91956,-0.6807 0.91956,-0.6807 0.91956,-0.6807 0,0 0.85417,-0.7737 0.85417,-0.7737 0,0 0,0 0.77367,-0.8541 0,0 0,0 0,0 0.6807,-0.9196 0.6807,-0.9196 0.6807,-0.9196 0,0 0.58431,-0.977 0.58431,-0.977 0,0 0,0 0.48567,-1.0273 0,0 0,0 0,0 0.38287,-1.0692 0.38287,-1.0692 0.38287,-1.0692 0,0 0.27779,-1.1044 0.27779,-1.1044 0,0 0,0 0.16857,-1.1316 0,0 0,0 0,0 0.0571,-1.1508 0.0571,-1.1508 0.0571,-1.1508 0,0 -0.0571,-1.1509 -0.0571,-1.1509 0,0 0,0 -0.16857,-1.1316 0,0 0,0 0,0 -0.27779,-1.1044 -0.27779,-1.1044 -0.27779,-1.1044 0,0 -0.38287,-1.0692 -0.38287,-1.0692 0,0 0,0 -0.48567,-1.0273 0,0 0,0 0,0 -0.58431,-0.977 -0.58431,-0.977 -0.58431,-0.977 0,0 -0.6807,-0.9195 -0.6807,-0.9195 0,0 0,0 -0.77367,-0.8542 0,0 0,0 0,0 -0.85417,-0.7737 -0.85417,-0.7737 -0.85417,-0.7737 0,0 -0.91956,-0.6807 -0.91956,-0.6807 0,0 0,0 -0.97701,-0.5843 0,0 0,0 0,0 -1.02727,-0.4857 -1.02727,-0.4857 -1.02727,-0.4857 0,0 -1.06923,-0.3828 -1.06923,-0.3828 0,0 0,0 -1.10438,-0.2778 0,0 0,0 0,0 -1.13159,-0.1686 -1.13159,-0.1686 -1.13159,-0.1686 0,0 -1.15086,-0.057 -1.15086,-0.057 0,0 0,0 0,0 z"
       style="fill:none;stroke:#000000;stroke-width:0.5"
       id="path25"
       inkscape:connector-curvature="0" />
    <path
       d="m 55.836964,904.90439 c 0,0 -1.15087,0.057 -1.15087,0.057 0,0 0,0 -1.13159,0.1686 0,0 0,0 0,0 -1.10438,0.2777 -1.10438,0.2777 -1.10438,0.2777 0,0 -1.06923,0.3829 -1.06923,0.3829 0,0 0,0 -1.02727,0.4857 0,0 0,0 0,0 -0.97701,0.5843 -0.97701,0.5843 -0.97701,0.5843 0,0 -0.91956,0.6807 -0.91956,0.6807 0,0 0,0 -0.85417,0.7737 0,0 0,0 0,0 -0.77367,0.8541 -0.77367,0.8541 -0.77367,0.8541 0,0 -0.68069,0.9196 -0.68069,0.9196 0,0 0,0 -0.58432,0.977 0,0 0,0 0,0 -0.48567,1.0273 -0.48567,1.0273 -0.48567,1.0273 0,0 -0.38287,1.0692 -0.38287,1.0692 0,0 0,0 -0.27779,1.1044 0,0 0,0 0,0 -0.16857,1.1316 -0.16857,1.1316 -0.16857,1.1316 0,0 -0.0571,1.1508 -0.0571,1.1508 0,0 0,0 0.0571,1.1509 0,0 0,0 0,0 0.16857,1.1316 0.16857,1.1316 0.16857,1.1316 0,0 0.27779,1.1044 0.27779,1.1044 0,0 0,0 0.38287,1.0692 0,0 0,0 0,0 0.48567,1.0273 0.48567,1.0273 0.48567,1.0273 0,0 0.58432,0.977 0.58432,0.977 0,0 0,0 0.68069,0.9195 0,0 0,0 0,0 0.77367,0.8542 0.77367,0.8542 0.77367,0.8542 0,0 0.85417,0.7737 0.85417,0.7737 0,0 0,0 0.91956,0.6807 0,0 0,0 0,0 0.97701,0.5843 0.97701,0.5843 0.97701,0.5843 0,0 1.02727,0.4857 1.02727,0.4857 0,0 0,0 1.06923,0.3828 0,0 0,0 0,0 1.10438,0.2778 1.10438,0.2778 1.10438,0.2778 0,0 1.13159,0.1686 1.13159,0.1686 0,0 0,0 1.15087,0.057 0,0 0,0 0,0 1.15086,-0.057 1.15086,-0.057 1.15086,-0.057 0,0 1.13159,-0.1686 1.13159,-0.1686 0,0 0,0 1.10438,-0.2778 0,0 0,0 0,0 1.06923,-0.3828 1.06923,-0.3828 1.06923,-0.3828 0,0 1.02727,-0.4857 1.02727,-0.4857 0,0 0,0 0.97701,-0.5843 0,0 0,0 0,0 0.91956,-0.6807 0.91956,-0.6807 0.91956,-0.6807 0,0 0.85417,-0.7737 0.85417,-0.7737 0,0 0,0 0.77367,-0.8542 0,0 0,0 0,0 0.6807,-0.9195 0.6807,-0.9195 0.6807,-0.9195 0,0 0.58431,-0.977 0.58431,-0.977 0,0 0,0 0.48567,-1.0273 0,0 0,0 0,0 0.38287,-1.0692 0.38287,-1.0692 0.38287,-1.0692 0,0 0.27779,-1.1044 0.27779,-1.1044 0,0 0,0 0.16857,-1.1316 0,0 0,0 0,0 0.0571,-1.1509 0.0571,-1.1509 0.0571,-1.1509 0,0 -0.0571,-1.1508 -0.0571,-1.1508 0,0 0,0 -0.16857,-1.1316 0,0 0,0 0,0 -0.27779,-1.1044 -0.27779,-1.1044 -0.27779,-1.1044 0,0 -0.38287,-1.0692 -0.38287,-1.0692 0,0 0,0 -0.48567,-1.0273 0,0 0,0 0,0 -0.58431,-0.977 -0.58431,-0.977 -0.58431,-0.977 0,0 -0.6807,-0.9196 -0.6807,-0.9196 0,0 0,0 -0.77367,-0.8541 0,0 0,0 0,0 -0.85417,-0.7737 -0.85417,-0.7737 -0.85417,-0.7737 0,0 -0.91956,-0.6807 -0.91956,-0.6807 0,0 0,0 -0.97701,-0.5843 0,0 0,0 0,0 -1.02727,-0.4857 -1.02727,-0.4857 -1.02727,-0.4857 0,0 -1.06923,-0.3829 -1.06923,-0.3829 0,0 0,0 -1.10438,-0.2777 0,0 0,0 0,0 -1.13159,-0.1686 -1.13159,-0.1686 -1.13159,-0.1686 0,0 -1.15086,-0.057 -1.15086,-0.057 0,0 0,0 0,0 z"
       style="fill:none;stroke:#000000;stroke-width:0.5"
       id="path27"
       inkscape:connector-curvature="0" />
    <path
       d="m 101.27481,876.29299 c 0,0 -1.15086,0.057 -1.15086,0.057 0,0 0,0 -1.131586,0.1686 0,0 0,0 0,0 -1.10438,0.2777 -1.10438,0.2777 -1.10438,0.2777 0,0 -1.06923,0.3829 -1.06923,0.3829 0,0 0,0 -1.02727,0.4857 0,0 0,0 0,0 -0.97701,0.5843 -0.97701,0.5843 -0.97701,0.5843 0,0 -0.91956,0.6807 -0.91956,0.6807 0,0 0,0 -0.85418,0.7737 0,0 0,0 0,0 -0.77366,0.8541 -0.77366,0.8541 -0.77366,0.8541 0,0 -0.6807,0.9196 -0.6807,0.9196 0,0 0,0 -0.58431,0.977 0,0 0,0 0,0 -0.48567,1.0273 -0.48567,1.0273 -0.48567,1.0273 0,0 -0.38287,1.0692 -0.38287,1.0692 0,0 0,0 -0.27779,1.1044 0,0 0,0 0,0 -0.16857,1.1316 -0.16857,1.1316 -0.16857,1.1316 0,0 -0.0571,1.1508 -0.0571,1.1508 0,0 0,0 0.0571,1.1509 0,0 0,0 0,0 0.16857,1.1316 0.16857,1.1316 0.16857,1.1316 0,0 0.27779,1.1044 0.27779,1.1044 0,0 0,0 0.38287,1.0692 0,0 0,0 0,0 0.48567,1.0273 0.48567,1.0273 0.48567,1.0273 0,0 0.58431,0.977 0.58431,0.977 0,0 0,0 0.6807,0.9195 0,0 0,0 0,0 0.77366,0.8542 0.77366,0.8542 0.77366,0.8542 0,0 0.85418,0.7737 0.85418,0.7737 0,0 0,0 0.91956,0.6807 0,0 0,0 0,0 0.97701,0.5843 0.97701,0.5843 0.97701,0.5843 0,0 1.02727,0.4857 1.02727,0.4857 0,0 0,0 1.06923,0.3828 0,0 0,0 0,0 1.10438,0.2778 1.10438,0.2778 1.10438,0.2778 0,0 1.131586,0.1686 1.131586,0.1686 0,0 0,0 1.15086,0.057 0,0 0,0 0,0 1.15087,-0.057 1.15087,-0.057 1.15087,-0.057 0,0 1.13159,-0.1686 1.13159,-0.1686 0,0 0,0 1.10438,-0.2778 0,0 0,0 0,0 1.06923,-0.3828 1.06923,-0.3828 1.06923,-0.3828 0,0 1.02727,-0.4857 1.02727,-0.4857 0,0 0,0 0.97701,-0.5843 0,0 0,0 0,0 0.91956,-0.6807 0.91956,-0.6807 0.91956,-0.6807 0,0 0.85417,-0.7737 0.85417,-0.7737 0,0 0,0 0.77367,-0.8542 0,0 0,0 0,0 0.6807,-0.9195 0.6807,-0.9195 0.6807,-0.9195 0,0 0.58431,-0.977 0.58431,-0.977 0,0 0,0 0.48567,-1.0273 0,0 0,0 0,0 0.38287,-1.0692 0.38287,-1.0692 0.38287,-1.0692 0,0 0.27779,-1.1044 0.27779,-1.1044 0,0 0,0 0.16857,-1.1316 0,0 0,0 0,0 0.0571,-1.1509 0.0571,-1.1509 0.0571,-1.1509 0,0 -0.0571,-1.1508 -0.0571,-1.1508 0,0 0,0 -0.16857,-1.1316 0,0 0,0 0,0 -0.27779,-1.1044 -0.27779,-1.1044 -0.27779,-1.1044 0,0 -0.38287,-1.0692 -0.38287,-1.0692 0,0 0,0 -0.48567,-1.0273 0,0 0,0 0,0 -0.58431,-0.977 -0.58431,-0.977 -0.58431,-0.977 0,0 -0.6807,-0.9196 -0.6807,-0.9196 0,0 0,0 -0.77367,-0.8541 0,0 0,0 0,0 -0.85417,-0.7737 -0.85417,-0.7737 -0.85417,-0.7737 0,0 -0.91956,-0.6807 -0.91956,-0.6807 0,0 0,0 -0.97701,-0.5843 0,0 0,0 0,0 -1.02727,-0.4857 -1.02727,-0.4857 -1.02727,-0.4857 0,0 -1.06923,-0.3829 -1.06923,-0.3829 0,0 0,0 -1.10438,-0.2777 0,0 0,0 0,0 -1.13159,-0.1686 -1.13159,-0.1686 -1.13159,-0.1686 0,0 -1.15087,-0.057 -1.15087,-0.057 0,0 0,0 0,0 z"
       style="fill:none;stroke:#000000;stroke-width:0.5"
       id="path29"
       inkscape:connector-curvature="0" />
    <path
       d="m 101.27481,933.51539 c 0,0 -1.15086,0.057 -1.15086,0.057 0,0 0,0 -1.131586,0.1686 0,0 0,0 0,0 -1.10438,0.2778 -1.10438,0.2778 -1.10438,0.2778 0,0 -1.06923,0.3828 -1.06923,0.3828 0,0 0,0 -1.02727,0.4857 0,0 0,0 0,0 -0.97701,0.5843 -0.97701,0.5843 -0.97701,0.5843 0,0 -0.91956,0.6807 -0.91956,0.6807 0,0 0,0 -0.85418,0.7737 0,0 0,0 0,0 -0.77366,0.8542 -0.77366,0.8542 -0.77366,0.8542 0,0 -0.6807,0.9195 -0.6807,0.9195 0,0 0,0 -0.58431,0.977 0,0 0,0 0,0 -0.48567,1.0273 -0.48567,1.0273 -0.48567,1.0273 0,0 -0.38287,1.0692 -0.38287,1.0692 0,0 0,0 -0.27779,1.1044 0,0 0,0 0,0 -0.16857,1.1316 -0.16857,1.1316 -0.16857,1.1316 0,0 -0.0571,1.1509 -0.0571,1.1509 0,0 0,0 0.0571,1.1508 0,0 0,0 0,0 0.16857,1.1316 0.16857,1.1316 0.16857,1.1316 0,0 0.27779,1.1044 0.27779,1.1044 0,0 0,0 0.38287,1.0692 0,0 0,0 0,0 0.48567,1.0273 0.48567,1.0273 0.48567,1.0273 0,0 0.58431,0.977 0.58431,0.977 0,0 0,0 0.6807,0.9196 0,0 0,0 0,0 0.77366,0.8541 0.77366,0.8541 0.77366,0.8541 0,0 0.85418,0.7737 0.85418,0.7737 0,0 0,0 0.91956,0.6807 0,0 0,0 0,0 0.97701,0.5843 0.97701,0.5843 0.97701,0.5843 0,0 1.02727,0.4857 1.02727,0.4857 0,0 0,0 1.06923,0.3829 0,0 0,0 0,0 1.10438,0.2778 1.10438,0.2778 1.10438,0.2778 0,0 1.131586,0.1685 1.131586,0.1685 0,0 0,0 1.15086,0.057 0,0 0,0 0,0 1.15087,-0.057 1.15087,-0.057 1.15087,-0.057 0,0 1.13159,-0.1685 1.13159,-0.1685 0,0 0,0 1.10438,-0.2778 0,0 0,0 0,0 1.06923,-0.3829 1.06923,-0.3829 1.06923,-0.3829 0,0 1.02727,-0.4857 1.02727,-0.4857 0,0 0,0 0.97701,-0.5843 0,0 0,0 0,0 0.91956,-0.6807 0.91956,-0.6807 0.91956,-0.6807 0,0 0.85417,-0.7737 0.85417,-0.7737 0,0 0,0 0.77367,-0.8541 0,0 0,0 0,0 0.6807,-0.9196 0.6807,-0.9196 0.6807,-0.9196 0,0 0.58431,-0.977 0.58431,-0.977 0,0 0,0 0.48567,-1.0273 0,0 0,0 0,0 0.38287,-1.0692 0.38287,-1.0692 0.38287,-1.0692 0,0 0.27779,-1.1044 0.27779,-1.1044 0,0 0,0 0.16857,-1.1316 0,0 0,0 0,0 0.0571,-1.1508 0.0571,-1.1508 0.0571,-1.1508 0,0 -0.0571,-1.1509 -0.0571,-1.1509 0,0 0,0 -0.16857,-1.1316 0,0 0,0 0,0 -0.27779,-1.1044 -0.27779,-1.1044 -0.27779,-1.1044 0,0 -0.38287,-1.0692 -0.38287,-1.0692 0,0 0,0 -0.48567,-1.0273 0,0 0,0 0,0 -0.58431,-0.977 -0.58431,-0.977 -0.58431,-0.977 0,0 -0.6807,-0.9195 -0.6807,-0.9195 0,0 0,0 -0.77367,-0.8542 0,0 0,0 0,0 -0.85417,-0.7737 -0.85417,-0.7737 -0.85417,-0.7737 0,0 -0.91956,-0.6807 -0.91956,-0.6807 0,0 0,0 -0.97701,-0.5843 0,0 0,0 0,0 -1.02727,-0.4857 -1.02727,-0.4857 -1.02727,-0.4857 0,0 -1.06923,-0.3828 -1.06923,-0.3828 0,0 0,0 -1.10438,-0.2778 0,0 0,0 0,0 -1.13159,-0.1686 -1.13159,-0.1686 -1.13159,-0.1686 0,0 -1.15087,-0.057 -1.15087,-0.057 0,0 0,0 0,0 z"
       style="fill:none;stroke:#000000;stroke-width:0.5"
       id="path31"
       inkscape:connector-curvature="0" />
    <path
       d="m 101.27481,904.90439 c 0,0 -1.15086,0.057 -1.15086,0.057 0,0 0,0 -1.131586,0.1686 0,0 0,0 0,0 -1.10438,0.2777 -1.10438,0.2777 -1.10438,0.2777 0,0 -1.06923,0.3829 -1.06923,0.3829 0,0 0,0 -1.02727,0.4857 0,0 0,0 0,0 -0.97701,0.5843 -0.97701,0.5843 -0.97701,0.5843 0,0 -0.91956,0.6807 -0.91956,0.6807 0,0 0,0 -0.85418,0.7737 0,0 0,0 0,0 -0.77366,0.8541 -0.77366,0.8541 -0.77366,0.8541 0,0 -0.6807,0.9196 -0.6807,0.9196 0,0 0,0 -0.58431,0.977 0,0 0,0 0,0 -0.48567,1.0273 -0.48567,1.0273 -0.48567,1.0273 0,0 -0.38287,1.0692 -0.38287,1.0692 0,0 0,0 -0.27779,1.1044 0,0 0,0 0,0 -0.16857,1.1316 -0.16857,1.1316 -0.16857,1.1316 0,0 -0.0571,1.1508 -0.0571,1.1508 0,0 0,0 0.0571,1.1509 0,0 0,0 0,0 0.16857,1.1316 0.16857,1.1316 0.16857,1.1316 0,0 0.27779,1.1044 0.27779,1.1044 0,0 0,0 0.38287,1.0692 0,0 0,0 0,0 0.48567,1.0273 0.48567,1.0273 0.48567,1.0273 0,0 0.58431,0.977 0.58431,0.977 0,0 0,0 0.6807,0.9195 0,0 0,0 0,0 0.77366,0.8542 0.77366,0.8542 0.77366,0.8542 0,0 0.85418,0.7737 0.85418,0.7737 0,0 0,0 0.91956,0.6807 0,0 0,0 0,0 0.97701,0.5843 0.97701,0.5843 0.97701,0.5843 0,0 1.02727,0.4857 1.02727,0.4857 0,0 0,0 1.06923,0.3828 0,0 0,0 0,0 1.10438,0.2778 1.10438,0.2778 1.10438,0.2778 0,0 1.131586,0.1686 1.131586,0.1686 0,0 0,0 1.15086,0.057 0,0 0,0 0,0 1.15087,-0.057 1.15087,-0.057 1.15087,-0.057 0,0 1.13159,-0.1686 1.13159,-0.1686 0,0 0,0 1.10438,-0.2778 0,0 0,0 0,0 1.06923,-0.3828 1.06923,-0.3828 1.06923,-0.3828 0,0 1.02727,-0.4857 1.02727,-0.4857 0,0 0,0 0.97701,-0.5843 0,0 0,0 0,0 0.91956,-0.6807 0.91956,-0.6807 0.91956,-0.6807 0,0 0.85417,-0.7737 0.85417,-0.7737 0,0 0,0 0.77367,-0.8542 0,0 0,0 0,0 0.6807,-0.9195 0.6807,-0.9195 0.6807,-0.9195 0,0 0.58431,-0.977 0.58431,-0.977 0,0 0,0 0.48567,-1.0273 0,0 0,0 0,0 0.38287,-1.0692 0.38287,-1.0692 0.38287,-1.0692 0,0 0.27779,-1.1044 0.27779,-1.1044 0,0 0,0 0.16857,-1.1316 0,0 0,0 0,0 0.0571,-1.1509 0.0571,-1.1509 0.0571,-1.1509 0,0 -0.0571,-1.1508 -0.0571,-1.1508 0,0 0,0 -0.16857,-1.1316 0,0 0,0 0,0 -0.27779,-1.1044 -0.27779,-1.1044 -0.27779,-1.1044 0,0 -0.38287,-1.0692 -0.38287,-1.0692 0,0 0,0 -0.48567,-1.0273 0,0 0,0 0,0 -0.58431,-0.977 -0.58431,-0.977 -0.58431,-0.977 0,0 -0.6807,-0.9196 -0.6807,-0.9196 0,0 0,0 -0.77367,-0.8541 0,0 0,0 0,0 -0.85417,-0.7737 -0.85417,-0.7737 -0.85417,-0.7737 0,0 -0.91956,-0.6807 -0.91956,-0.6807 0,0 0,0 -0.97701,-0.5843 0,0 0,0 0,0 -1.02727,-0.4857 -1.02727,-0.4857 -1.02727,-0.4857 0,0 -1.06923,-0.3829 -1.06923,-0.3829 0,0 0,0 -1.10438,-0.2777 0,0 0,0 0,0 -1.13159,-0.1686 -1.13159,-0.1686 -1.13159,-0.1686 0,0 -1.15087,-0.057 -1.15087,-0.057 0,0 0,0 0,0 z"
       style="fill:none;stroke:#000000;stroke-width:0.5"
       id="path33"
       inkscape:connector-curvature="0" />
    <path
       d="m 154.78028,847.81654 c 0,0 23.28983,0 23.28983,0 0,0 0,0 0,-14.5561 0,0 0,0 0,0 23.28945,0 23.28945,0 23.28945,0 0,0 0,14.5561 0,14.5561 0,0 0,0 23.28982,0 0,0 0,0 0,0 0,-14.5561 0,-14.5561 0,-14.5561 0,0 23.28944,0 23.28944,0 0,0 0,0 0,14.5561 0,0 0,0 0,0 8.73373,0 8.73373,0 8.73373,0 0,0 0,-23.2898 0,-23.2898 0,0 0,0 14.55572,0 0,0 0,0 0,0 0,-23.2895 0,-23.2895 0,-23.2895 0,0 -14.55572,0 -14.55572,0 0,0 0,0 0,-23.2894 0,0 0,0 0,0 14.55572,0 14.55572,0 14.55572,0 0,0 0,-23.2899 0,-23.2899 0,0 0,0 -14.55572,0 0,0 0,0 0,0 0,-23.2894 0,-23.2894 0,-23.2894 0,0 -8.73373,0 -8.73373,0 0,0 0,0 0,14.5561 0,0 0,0 0,0 -23.28944,0 -23.28944,0 -23.28944,0 0,0 0,-14.5561 0,-14.5561 0,0 0,0 -23.28982,0 0,0 0,0 0,0 0,14.5561 0,14.5561 0,14.5561 0,0 -23.28945,0 -23.28945,0 0,0 0,0 0,-14.5561 0,0 0,0 0,0 -23.28983,0 -23.28983,0 -23.28983,0 0,0 0,23.2894 0,23.2894 0,0 0,0 14.5561,0 0,0 0,0 0,0 0,23.2899 0,23.2899 0,23.2899 0,0 -14.5561,0 -14.5561,0 0,0 0,0 0,23.2894 0,0 0,0 0,0 14.5561,0 14.5561,0 14.5561,0 0,0 0,23.2895 0,23.2895 0,0 0,0 -14.5561,0 0,0 0,0 0,0 z"
       style="fill:none;stroke:#000000;stroke-width:0.5"
       id="path35"
       inkscape:connector-curvature="0" />
    <path
       d="m 204.38091,768.15354 c 0,0 -0.0601,1.1905 -0.0601,1.1905 0,0 0,0 -0.17651,1.1562 0,0 0,0 0,0 -0.28686,1.1157 -0.28686,1.1157 -0.28686,1.1157 0,0 -0.39194,1.07 -0.39194,1.07 0,0 0,0 -0.49021,1.0178 0,0 0,0 0,0 -0.58356,0.96 -0.58356,0.96 -0.58356,0.96 0,0 -0.67011,0.8965 -0.67011,0.8965 0,0 0,0 -0.75174,0.827 0,0 0,0 0,0 -0.82696,0.7517 -0.82696,0.7517 -0.82696,0.7517 0,0 -0.89651,0.6705 -0.89651,0.6705 0,0 0,0 -0.96,0.5836 0,0 0,0 0,0 -1.0182,0.4902 -1.0182,0.4902 -1.0182,0.4902 0,0 -1.06961,0.3919 -1.06961,0.3919 0,0 0,0 -1.11609,0.2869 0,0 0,0 0,0 -1.15578,0.1765 -1.15578,0.1765 -1.15578,0.1765 0,0 -1.19055,0.06 -1.19055,0.06 0,0 0,0 -1.19055,-0.06 0,0 0,0 0,0 -1.15616,-0.1765 -1.15616,-0.1765 -1.15616,-0.1765 0,0 -1.11572,-0.2869 -1.11572,-0.2869 0,0 0,0 -1.06998,-0.3919 0,0 0,0 0,0 -1.01783,-0.4902 -1.01783,-0.4902 -1.01783,-0.4902 0,0 -0.96038,-0.5836 -0.96038,-0.5836 0,0 0,0 -0.8965,-0.6705 0,0 0,0 0,0 -0.82696,-0.7517 -0.82696,-0.7517 -0.82696,-0.7517 0,0 -0.75137,-0.827 -0.75137,-0.827 0,0 0,0 -0.67049,-0.8965 0,0 0,0 0,0 -0.58356,-0.96 -0.58356,-0.96 -0.58356,-0.96 0,0 -0.4902,-1.0178 -0.4902,-1.0178 0,0 0,0 -0.39194,-1.07 0,0 0,0 0,0 -0.28687,-1.1157 -0.28687,-1.1157 -0.28687,-1.1157 0,0 -0.1765,-1.1562 -0.1765,-1.1562 0,0 0,0 -0.0601,-1.1905 0,0 0,0 0,0 0.0601,-1.1906 0.0601,-1.1906 0.0601,-1.1906 0,0 0.1765,-1.1557 0.1765,-1.1557 0,0 0,0 0.28687,-1.1161 0,0 0,0 0,0 0.39194,-1.0696 0.39194,-1.0696 0.39194,-1.0696 0,0 0.4902,-1.0179 0.4902,-1.0179 0,0 0,0 0.58356,-0.96 0,0 0,0 0,0 0.67049,-0.8965 0.67049,-0.8965 0.67049,-0.8965 0,0 0.75137,-0.8269 0.75137,-0.8269 0,0 0,0 0.82696,-0.7518 0,0 0,0 0,0 0.8965,-0.6705 0.8965,-0.6705 0.8965,-0.6705 0,0 0.96038,-0.5835 0.96038,-0.5835 0,0 0,0 1.01783,-0.4902 0,0 0,0 0,0 1.06998,-0.392 1.06998,-0.392 1.06998,-0.392 0,0 1.11572,-0.2868 1.11572,-0.2868 0,0 0,0 1.15616,-0.1765 0,0 0,0 0,0 1.19055,-0.06 1.19055,-0.06 1.19055,-0.06 0,0 1.19055,0.06 1.19055,0.06 0,0 0,0 1.15578,0.1765 0,0 0,0 0,0 1.11609,0.2868 1.11609,0.2868 1.11609,0.2868 0,0 1.06961,0.392 1.06961,0.392 0,0 0,0 1.0182,0.4902 0,0 0,0 0,0 0.96,0.5835 0.96,0.5835 0.96,0.5835 0,0 0.89651,0.6705 0.89651,0.6705 0,0 0,0 0.82696,0.7518 0,0 0,0 0,0 0.75174,0.8269 0.75174,0.8269 0.75174,0.8269 0,0 0.67011,0.8965 0.67011,0.8965 0,0 0,0 0.58356,0.96 0,0 0,0 0,0 0.49021,1.0179 0.49021,1.0179 0.49021,1.0179 0,0 0.39194,1.0696 0.39194,1.0696 0,0 0,0 0.28686,1.1161 0,0 0,0 0,0 0.17651,1.1557 0.17651,1.1557 0.17651,1.1557 0,0 0.0601,1.1906 0.0601,1.1906 0,0 0,0 0,0 z"
       style="fill:none;stroke:#000000;stroke-width:0.5"
       id="path37"
       inkscape:connector-curvature="0" />
    <path
       d="m 204.38091,813.73124 c 0,0 -0.0601,1.1905 -0.0601,1.1905 0,0 0,0 -0.17651,1.1558 0,0 0,0 0,0 -0.28686,1.1161 -0.28686,1.1161 -0.28686,1.1161 0,0 -0.39194,1.0696 -0.39194,1.0696 0,0 0,0 -0.49021,1.0179 0,0 0,0 0,0 -0.58356,0.96 -0.58356,0.96 -0.58356,0.96 0,0 -0.67011,0.8965 -0.67011,0.8965 0,0 0,0 -0.75174,0.8273 0,0 0,0 0,0 -0.82696,0.7514 -0.82696,0.7514 -0.82696,0.7514 0,0 -0.89651,0.6705 -0.89651,0.6705 0,0 0,0 -0.96,0.5835 0,0 0,0 0,0 -1.0182,0.4902 -1.0182,0.4902 -1.0182,0.4902 0,0 -1.06961,0.392 -1.06961,0.392 0,0 0,0 -1.11609,0.2868 0,0 0,0 0,0 -1.15578,0.1765 -1.15578,0.1765 -1.15578,0.1765 0,0 -1.19055,0.06 -1.19055,0.06 0,0 0,0 -1.19055,-0.06 0,0 0,0 0,0 -1.15616,-0.1765 -1.15616,-0.1765 -1.15616,-0.1765 0,0 -1.11572,-0.2868 -1.11572,-0.2868 0,0 0,0 -1.06998,-0.392 0,0 0,0 0,0 -1.01783,-0.4902 -1.01783,-0.4902 -1.01783,-0.4902 0,0 -0.96038,-0.5835 -0.96038,-0.5835 0,0 0,0 -0.8965,-0.6705 0,0 0,0 0,0 -0.82696,-0.7514 -0.82696,-0.7514 -0.82696,-0.7514 0,0 -0.75137,-0.8273 -0.75137,-0.8273 0,0 0,0 -0.67049,-0.8965 0,0 0,0 0,0 -0.58356,-0.96 -0.58356,-0.96 -0.58356,-0.96 0,0 -0.4902,-1.0179 -0.4902,-1.0179 0,0 0,0 -0.39194,-1.0696 0,0 0,0 0,0 -0.28687,-1.1161 -0.28687,-1.1161 -0.28687,-1.1161 0,0 -0.1765,-1.1558 -0.1765,-1.1558 0,0 0,0 -0.0601,-1.1905 0,0 0,0 0,0 0.0601,-1.1906 0.0601,-1.1906 0.0601,-1.1906 0,0 0.1765,-1.1557 0.1765,-1.1557 0,0 0,0 0.28687,-1.1161 0,0 0,0 0,0 0.39194,-1.0696 0.39194,-1.0696 0.39194,-1.0696 0,0 0.4902,-1.0182 0.4902,-1.0182 0,0 0,0 0.58356,-0.96 0,0 0,0 0,0 0.67049,-0.8965 0.67049,-0.8965 0.67049,-0.8965 0,0 0.75137,-0.827 0.75137,-0.827 0,0 0,0 0.82696,-0.7518 0,0 0,0 0,0 0.8965,-0.6701 0.8965,-0.6701 0.8965,-0.6701 0,0 0.96038,-0.5835 0.96038,-0.5835 0,0 0,0 1.01783,-0.4902 0,0 0,0 0,0 1.06998,-0.392 1.06998,-0.392 1.06998,-0.392 0,0 1.11572,-0.2868 1.11572,-0.2868 0,0 0,0 1.15616,-0.1765 0,0 0,0 0,0 1.19055,-0.06 1.19055,-0.06 1.19055,-0.06 0,0 1.19055,0.06 1.19055,0.06 0,0 0,0 1.15578,0.1765 0,0 0,0 0,0 1.11609,0.2868 1.11609,0.2868 1.11609,0.2868 0,0 1.06961,0.392 1.06961,0.392 0,0 0,0 1.0182,0.4902 0,0 0,0 0,0 0.96,0.5835 0.96,0.5835 0.96,0.5835 0,0 0.89651,0.6701 0.89651,0.6701 0,0 0,0 0.82696,0.7518 0,0 0,0 0,0 0.75174,0.827 0.75174,0.827 0.75174,0.827 0,0 0.67011,0.8965 0.67011,0.8965 0,0 0,0 0.58356,0.96 0,0 0,0 0,0 0.49021,1.0182 0.49021,1.0182 0.49021,1.0182 0,0 0.39194,1.0696 0.39194,1.0696 0,0 0,0 0.28686,1.1161 0,0 0,0 0,0 0.17651,1.1557 0.17651,1.1557 0.17651,1.1557 0,0 0.0601,1.1906 0.0601,1.1906 0,0 0,0 0,0 z"
       style="fill:none;stroke:#000000;stroke-width:0.5"
       id="path39"
       inkscape:connector-curvature="0" />
    <path
       d="m 246.70367,767.41084 c 0,0 -0.0601,1.1906 -0.0601,1.1906 0,0 0,0 -0.17651,1.1557 0,0 0,0 0,0 -0.28686,1.1161 -0.28686,1.1161 -0.28686,1.1161 0,0 -0.39194,1.0696 -0.39194,1.0696 0,0 0,0 -0.4902,1.0183 0,0 0,0 0,0 -0.58356,0.96 -0.58356,0.96 -0.58356,0.96 0,0 -0.67011,0.8965 -0.67011,0.8965 0,0 0,0 -0.75175,0.8269 0,0 0,0 0,0 -0.82696,0.7518 -0.82696,0.7518 -0.82696,0.7518 0,0 -0.89651,0.6701 -0.89651,0.6701 0,0 0,0 -0.96,0.5835 0,0 0,0 0,0 -1.0182,0.4902 -1.0182,0.4902 -1.0182,0.4902 0,0 -1.06961,0.392 -1.06961,0.392 0,0 0,0 -1.11609,0.2868 0,0 0,0 0,0 -1.15578,0.1765 -1.15578,0.1765 -1.15578,0.1765 0,0 -1.19055,0.06 -1.19055,0.06 0,0 0,0 -1.19054,-0.06 0,0 0,0 0,0 -1.15616,-0.1765 -1.15616,-0.1765 -1.15616,-0.1765 0,0 -1.11572,-0.2868 -1.11572,-0.2868 0,0 0,0 -1.06998,-0.392 0,0 0,0 0,0 -1.01783,-0.4902 -1.01783,-0.4902 -1.01783,-0.4902 0,0 -0.96,-0.5835 -0.96,-0.5835 0,0 0,0 -0.8965,-0.6701 0,0 0,0 0,0 -0.82696,-0.7518 -0.82696,-0.7518 -0.82696,-0.7518 0,0 -0.75175,-0.8269 -0.75175,-0.8269 0,0 0,0 -0.67049,-0.8965 0,0 0,0 0,0 -0.58318,-0.96 -0.58318,-0.96 -0.58318,-0.96 0,0 -0.49058,-1.0183 -0.49058,-1.0183 0,0 0,0 -0.39156,-1.0696 0,0 0,0 0,0 -0.28687,-1.1161 -0.28687,-1.1161 -0.28687,-1.1161 0,0 -0.1765,-1.1557 -0.1765,-1.1557 0,0 0,0 -0.0601,-1.1906 0,0 0,0 0,0 0.0601,-1.1905 0.0601,-1.1905 0.0601,-1.1905 0,0 0.1765,-1.1558 0.1765,-1.1558 0,0 0,0 0.28687,-1.1161 0,0 0,0 0,0 0.39156,-1.0696 0.39156,-1.0696 0.39156,-1.0696 0,0 0.49058,-1.0178 0.49058,-1.0178 0,0 0,0 0.58318,-0.96 0,0 0,0 0,0 0.67049,-0.8965 0.67049,-0.8965 0.67049,-0.8965 0,0 0.75175,-0.827 0.75175,-0.827 0,0 0,0 0.82696,-0.7518 0,0 0,0 0,0 0.8965,-0.6704 0.8965,-0.6704 0.8965,-0.6704 0,0 0.96,-0.5836 0.96,-0.5836 0,0 0,0 1.01783,-0.4902 0,0 0,0 0,0 1.06998,-0.3919 1.06998,-0.3919 1.06998,-0.3919 0,0 1.11572,-0.2869 1.11572,-0.2869 0,0 0,0 1.15616,-0.1765 0,0 0,0 0,0 1.19054,-0.06 1.19054,-0.06 1.19054,-0.06 0,0 1.19055,0.06 1.19055,0.06 0,0 0,0 1.15578,0.1765 0,0 0,0 0,0 1.11609,0.2869 1.11609,0.2869 1.11609,0.2869 0,0 1.06961,0.3919 1.06961,0.3919 0,0 0,0 1.0182,0.4902 0,0 0,0 0,0 0.96,0.5836 0.96,0.5836 0.96,0.5836 0,0 0.89651,0.6704 0.89651,0.6704 0,0 0,0 0.82696,0.7518 0,0 0,0 0,0 0.75175,0.827 0.75175,0.827 0.75175,0.827 0,0 0.67011,0.8965 0.67011,0.8965 0,0 0,0 0.58356,0.96 0,0 0,0 0,0 0.4902,1.0178 0.4902,1.0178 0.4902,1.0178 0,0 0.39194,1.0696 0.39194,1.0696 0,0 0,0 0.28686,1.1161 0,0 0,0 0,0 0.17651,1.1558 0.17651,1.1558 0.17651,1.1558 0,0 0.0601,1.1905 0.0601,1.1905 0,0 0,0 0,0 z"
       style="fill:none;stroke:#000000;stroke-width:0.5"
       id="path41"
       inkscape:connector-curvature="0" />
    <path
       d="m 246.70367,812.98854 c 0,0 -0.0601,1.1906 -0.0601,1.1906 0,0 0,0 -0.17651,1.1557 0,0 0,0 0,0 -0.28686,1.1161 -0.28686,1.1161 -0.28686,1.1161 0,0 -0.39194,1.0696 -0.39194,1.0696 0,0 0,0 -0.4902,1.0179 0,0 0,0 0,0 -0.58356,0.96 -0.58356,0.96 -0.58356,0.96 0,0 -0.67011,0.8965 -0.67011,0.8965 0,0 0,0 -0.75175,0.8273 0,0 0,0 0,0 -0.82696,0.7514 -0.82696,0.7514 -0.82696,0.7514 0,0 -0.89651,0.6705 -0.89651,0.6705 0,0 0,0 -0.96,0.5835 0,0 0,0 0,0 -1.0182,0.4902 -1.0182,0.4902 -1.0182,0.4902 0,0 -1.06961,0.392 -1.06961,0.392 0,0 0,0 -1.11609,0.2868 0,0 0,0 0,0 -1.15578,0.1765 -1.15578,0.1765 -1.15578,0.1765 0,0 -1.19055,0.06 -1.19055,0.06 0,0 0,0 -1.19054,-0.06 0,0 0,0 0,0 -1.15616,-0.1765 -1.15616,-0.1765 -1.15616,-0.1765 0,0 -1.11572,-0.2868 -1.11572,-0.2868 0,0 0,0 -1.06998,-0.392 0,0 0,0 0,0 -1.01783,-0.4902 -1.01783,-0.4902 -1.01783,-0.4902 0,0 -0.96,-0.5835 -0.96,-0.5835 0,0 0,0 -0.8965,-0.6705 0,0 0,0 0,0 -0.82696,-0.7514 -0.82696,-0.7514 -0.82696,-0.7514 0,0 -0.75175,-0.8273 -0.75175,-0.8273 0,0 0,0 -0.67049,-0.8965 0,0 0,0 0,0 -0.58318,-0.96 -0.58318,-0.96 -0.58318,-0.96 0,0 -0.49058,-1.0179 -0.49058,-1.0179 0,0 0,0 -0.39156,-1.0696 0,0 0,0 0,0 -0.28687,-1.1161 -0.28687,-1.1161 -0.28687,-1.1161 0,0 -0.1765,-1.1557 -0.1765,-1.1557 0,0 0,0 -0.0601,-1.1906 0,0 0,0 0,0 0.0601,-1.1905 0.0601,-1.1905 0.0601,-1.1905 0,0 0.1765,-1.1562 0.1765,-1.1562 0,0 0,0 0.28687,-1.1157 0,0 0,0 0,0 0.39156,-1.07 0.39156,-1.07 0.39156,-1.07 0,0 0.49058,-1.0178 0.49058,-1.0178 0,0 0,0 0.58318,-0.96 0,0 0,0 0,0 0.67049,-0.8965 0.67049,-0.8965 0.67049,-0.8965 0,0 0.75175,-0.827 0.75175,-0.827 0,0 0,0 0.82696,-0.7517 0,0 0,0 0,0 0.8965,-0.6705 0.8965,-0.6705 0.8965,-0.6705 0,0 0.96,-0.5836 0.96,-0.5836 0,0 0,0 1.01783,-0.4902 0,0 0,0 0,0 1.06998,-0.3919 1.06998,-0.3919 1.06998,-0.3919 0,0 1.11572,-0.2869 1.11572,-0.2869 0,0 0,0 1.15616,-0.1765 0,0 0,0 0,0 1.19054,-0.06 1.19054,-0.06 1.19054,-0.06 0,0 1.19055,0.06 1.19055,0.06 0,0 0,0 1.15578,0.1765 0,0 0,0 0,0 1.11609,0.2869 1.11609,0.2869 1.11609,0.2869 0,0 1.06961,0.3919 1.06961,0.3919 0,0 0,0 1.0182,0.4902 0,0 0,0 0,0 0.96,0.5836 0.96,0.5836 0.96,0.5836 0,0 0.89651,0.6705 0.89651,0.6705 0,0 0,0 0.82696,0.7517 0,0 0,0 0,0 0.75175,0.827 0.75175,0.827 0.75175,0.827 0,0 0.67011,0.8965 0.67011,0.8965 0,0 0,0 0.58356,0.96 0,0 0,0 0,0 0.4902,1.0178 0.4902,1.0178 0.4902,1.0178 0,0 0.39194,1.07 0.39194,1.07 0,0 0,0 0.28686,1.1157 0,0 0,0 0,0 0.17651,1.1562 0.17651,1.1562 0.17651,1.1562 0,0 0.0601,1.1905 0.0601,1.1905 0,0 0,0 0,0 z"
       style="fill:none;stroke:#000000;stroke-width:0.5"
       id="path43"
       inkscape:connector-curvature="0" />
    <path
       d="m 160.57183,1099.2519 c 0,0 0,-23.2898 0,-23.2898 0,0 0,0 14.55571,0 0,0 0,0 0,0 0,-23.2895 0,-23.2895 0,-23.2895 0,0 -14.55571,0 -14.55571,0 0,0 0,0 0,-23.2894 0,0 0,0 0,0 14.55571,0 14.55571,0 14.55571,0 0,0 0,-23.2899 0,-23.2899 0,0 0,0 -14.55571,0 0,0 0,0 0,0 0,-23.28941 0,-23.28941 0,-23.28941 0,0 23.28944,0 23.28944,0 0,0 0,0 0,14.5561 0,0 0,0 0,0 23.28945,0 23.28945,0 23.28945,0 0,0 0,-14.5561 0,-14.5561 0,0 0,0 23.28983,0 0,0 0,0 0,0 0,14.5561 0,14.5561 0,14.5561 0,0 23.28945,0 23.28945,0 0,0 0,0 0,-14.5561 0,0 0,0 0,0 8.73373,0 8.73373,0 8.73373,0 0,0 0,23.28941 0,23.28941 0,0 0,0 14.5561,0 0,0 0,0 0,0 0,23.2899 0,23.2899 0,23.2899 0,0 -14.5561,0 -14.5561,0 0,0 0,0 0,23.2894 0,0 0,0 0,0 14.5561,0 14.5561,0 14.5561,0 0,0 0,23.2895 0,23.2895 0,0 0,0 -14.5561,0 0,0 0,0 0,0 0,23.2898 0,23.2898 0,23.2898 0,0 -8.73373,0 -8.73373,0 0,0 0,0 0,-14.5561 0,0 0,0 0,0 -23.28945,0 -23.28945,0 -23.28945,0 0,0 0,14.5561 0,14.5561 0,0 0,0 -23.28983,0 0,0 0,0 0,0 0,-14.5561 0,-14.5561 0,-14.5561 0,0 -23.28945,0 -23.28945,0 0,0 0,0 0,14.5561 0,0 0,0 0,0 z"
       style="fill:none;stroke:#000000;stroke-width:0.5"
       id="path45"
       inkscape:connector-curvature="0" />
    <path
       d="m 208.08238,1019.3459 c 0,0 -0.0601,1.1905 -0.0601,1.1905 0,0 0,0 -0.17651,1.1562 0,0 0,0 0,0 -0.28686,1.1157 -0.28686,1.1157 -0.28686,1.1157 0,0 -0.39156,1.07 -0.39156,1.07 0,0 0,0 -0.49059,1.0178 0,0 0,0 0,0 -0.58318,0.96 -0.58318,0.96 -0.58318,0.96 0,0 -0.67048,0.8965 -0.67048,0.8965 0,0 0,0 -0.75175,0.827 0,0 0,0 0,0 -0.82696,0.7517 -0.82696,0.7517 -0.82696,0.7517 0,0 -0.89651,0.6705 -0.89651,0.6705 0,0 0,0 -0.96,0.5836 0,0 0,0 0,0 -1.01782,0.4902 -1.01782,0.4902 -1.01782,0.4902 0,0 -1.06999,0.3919 -1.06999,0.3919 0,0 0,0 -1.11572,0.2869 0,0 0,0 0,0 -1.15615,0.1765 -1.15615,0.1765 -1.15615,0.1765 0,0 -1.19055,0.06 -1.19055,0.06 0,0 0,0 -1.19055,-0.06 0,0 0,0 0,0 -1.15578,-0.1765 -1.15578,-0.1765 -1.15578,-0.1765 0,0 -1.1161,-0.2869 -1.1161,-0.2869 0,0 0,0 -1.06961,-0.3919 0,0 0,0 0,0 -1.0182,-0.4902 -1.0182,-0.4902 -1.0182,-0.4902 0,0 -0.96,-0.5836 -0.96,-0.5836 0,0 0,0 -0.8965,-0.6705 0,0 0,0 0,0 -0.82696,-0.7517 -0.82696,-0.7517 -0.82696,-0.7517 0,0 -0.75175,-0.827 -0.75175,-0.827 0,0 0,0 -0.67011,-0.8965 0,0 0,0 0,0 -0.58356,-0.96 -0.58356,-0.96 -0.58356,-0.96 0,0 -0.49021,-1.0178 -0.49021,-1.0178 0,0 0,0 -0.39193,-1.07 0,0 0,0 0,0 -0.28687,-1.1157 -0.28687,-1.1157 -0.28687,-1.1157 0,0 -0.1765,-1.1562 -0.1765,-1.1562 0,0 0,0 -0.0601,-1.1905 0,0 0,0 0,0 0.0601,-1.1906 0.0601,-1.1906 0.0601,-1.1906 0,0 0.1765,-1.1558 0.1765,-1.1558 0,0 0,0 0.28687,-1.1161 0,0 0,0 0,0 0.39193,-1.0696 0.39193,-1.0696 0.39193,-1.0696 0,0 0.49021,-1.0178 0.49021,-1.0178 0,0 0,0 0.58356,-0.96 0,0 0,0 0,0 0.67011,-0.8965 0.67011,-0.8965 0.67011,-0.8965 0,0 0.75175,-0.827 0.75175,-0.827 0,0 0,0 0.82696,-0.7517 0,0 0,0 0,0 0.8965,-0.6705 0.8965,-0.6705 0.8965,-0.6705 0,0 0.96,-0.5836 0.96,-0.5836 0,0 0,0 1.0182,-0.4902 0,0 0,0 0,0 1.06961,-0.3919 1.06961,-0.3919 1.06961,-0.3919 0,0 1.1161,-0.2869 1.1161,-0.2869 0,0 0,0 1.15578,-0.1765 0,0 0,0 0,0 1.19055,-0.06 1.19055,-0.06 1.19055,-0.06 0,0 1.19055,0.06 1.19055,0.06 0,0 0,0 1.15615,0.1765 0,0 0,0 0,0 1.11572,0.2869 1.11572,0.2869 1.11572,0.2869 0,0 1.06999,0.3919 1.06999,0.3919 0,0 0,0 1.01782,0.4902 0,0 0,0 0,0 0.96,0.5836 0.96,0.5836 0.96,0.5836 0,0 0.89651,0.6705 0.89651,0.6705 0,0 0,0 0.82696,0.7517 0,0 0,0 0,0 0.75175,0.827 0.75175,0.827 0.75175,0.827 0,0 0.67048,0.8965 0.67048,0.8965 0,0 0,0 0.58318,0.96 0,0 0,0 0,0 0.49059,1.0178 0.49059,1.0178 0.49059,1.0178 0,0 0.39156,1.0696 0.39156,1.0696 0,0 0,0 0.28686,1.1161 0,0 0,0 0,0 0.17651,1.1558 0.17651,1.1558 0.17651,1.1558 0,0 0.0601,1.1906 0.0601,1.1906 0,0 0,0 0,0 z"
       style="fill:none;stroke:#000000;stroke-width:0.5"
       id="path47"
       inkscape:connector-curvature="0" />
    <path
       d="m 253.52023,1064.9236 c 0,0 -0.0601,1.1905 -0.0601,1.1905 0,0 0,0 -0.1765,1.1558 0,0 0,0 0,0 -0.28687,1.1161 -0.28687,1.1161 -0.28687,1.1161 0,0 -0.39193,1.0696 -0.39193,1.0696 0,0 0,0 -0.49021,1.0178 0,0 0,0 0,0 -0.58356,0.96 -0.58356,0.96 -0.58356,0.96 0,0 -0.67011,0.8965 -0.67011,0.8965 0,0 0,0 -0.75174,0.8274 0,0 0,0 0,0 -0.82697,0.7513 -0.82697,0.7513 -0.82697,0.7513 0,0 -0.8965,0.6705 -0.8965,0.6705 0,0 0,0 -0.96,0.5836 0,0 0,0 0,0 -1.0182,0.4902 -1.0182,0.4902 -1.0182,0.4902 0,0 -1.06961,0.3919 -1.06961,0.3919 0,0 0,0 -1.11609,0.2869 0,0 0,0 0,0 -1.15578,0.1765 -1.15578,0.1765 -1.15578,0.1765 0,0 -1.19056,0.06 -1.19056,0.06 0,0 0,0 -1.19055,-0.06 0,0 0,0 0,0 -1.15615,-0.1765 -1.15615,-0.1765 -1.15615,-0.1765 0,0 -1.11572,-0.2869 -1.11572,-0.2869 0,0 0,0 -1.06998,-0.3919 0,0 0,0 0,0 -1.01783,-0.4902 -1.01783,-0.4902 -1.01783,-0.4902 0,0 -0.96038,-0.5836 -0.96038,-0.5836 0,0 0,0 -0.8965,-0.6705 0,0 0,0 0,0 -0.82696,-0.7513 -0.82696,-0.7513 -0.82696,-0.7513 0,0 -0.75137,-0.8274 -0.75137,-0.8274 0,0 0,0 -0.67049,-0.8965 0,0 0,0 0,0 -0.58356,-0.96 -0.58356,-0.96 -0.58356,-0.96 0,0 -0.49021,-1.0178 -0.49021,-1.0178 0,0 0,0 -0.39193,-1.0696 0,0 0,0 0,0 -0.28687,-1.1161 -0.28687,-1.1161 -0.28687,-1.1161 0,0 -0.1765,-1.1558 -0.1765,-1.1558 0,0 0,0 -0.0601,-1.1905 0,0 0,0 0,0 0.0601,-1.1906 0.0601,-1.1906 0.0601,-1.1906 0,0 0.1765,-1.1558 0.1765,-1.1558 0,0 0,0 0.28687,-1.1161 0,0 0,0 0,0 0.39193,-1.0696 0.39193,-1.0696 0.39193,-1.0696 0,0 0.49021,-1.0182 0.49021,-1.0182 0,0 0,0 0.58356,-0.96 0,0 0,0 0,0 0.67049,-0.8965 0.67049,-0.8965 0.67049,-0.8965 0,0 0.75137,-0.8269 0.75137,-0.8269 0,0 0,0 0.82696,-0.7518 0,0 0,0 0,0 0.8965,-0.6701 0.8965,-0.6701 0.8965,-0.6701 0,0 0.96038,-0.5836 0.96038,-0.5836 0,0 0,0 1.01783,-0.4902 0,0 0,0 0,0 1.06998,-0.3919 1.06998,-0.3919 1.06998,-0.3919 0,0 1.11572,-0.2869 1.11572,-0.2869 0,0 0,0 1.15615,-0.1765 0,0 0,0 0,0 1.19055,-0.06 1.19055,-0.06 1.19055,-0.06 0,0 1.19056,0.06 1.19056,0.06 0,0 0,0 1.15578,0.1765 0,0 0,0 0,0 1.11609,0.2869 1.11609,0.2869 1.11609,0.2869 0,0 1.06961,0.3919 1.06961,0.3919 0,0 0,0 1.0182,0.4902 0,0 0,0 0,0 0.96,0.5836 0.96,0.5836 0.96,0.5836 0,0 0.8965,0.6701 0.8965,0.6701 0,0 0,0 0.82697,0.7518 0,0 0,0 0,0 0.75174,0.8269 0.75174,0.8269 0.75174,0.8269 0,0 0.67011,0.8965 0.67011,0.8965 0,0 0,0 0.58356,0.96 0,0 0,0 0,0 0.49021,1.0182 0.49021,1.0182 0.49021,1.0182 0,0 0.39193,1.0696 0.39193,1.0696 0,0 0,0 0.28687,1.1161 0,0 0,0 0,0 0.1765,1.1558 0.1765,1.1558 0.1765,1.1558 0,0 0.0601,1.1906 0.0601,1.1906 0,0 0,0 0,0 z"
       style="fill:none;stroke:#000000;stroke-width:0.5"
       id="path49"
       inkscape:connector-curvature="0" />
    <path
       d="m 160.57183,974.87179 c 0,0 23.28944,0 23.28944,0 0,0 0,0 0,-14.5561 0,0 0,0 0,0 23.28945,0 23.28945,0 23.28945,0 0,0 0,14.5561 0,14.5561 0,0 0,0 23.28983,0 0,0 0,0 0,0 0,-14.5561 0,-14.5561 0,-14.5561 0,0 23.28945,0 23.28945,0 0,0 0,0 0,14.5561 0,0 0,0 0,0 8.73373,0 8.73373,0 8.73373,0 0,0 0,-23.2898 0,-23.2898 0,0 0,0 14.5561,0 0,0 0,0 0,0 0,-23.2895 0,-23.2895 0,-23.2895 0,0 -14.5561,0 -14.5561,0 0,0 0,0 0,-23.2894 0,0 0,0 0,0 14.5561,0 14.5561,0 14.5561,0 0,0 0,-23.2899 0,-23.2899 0,0 0,0 -14.5561,0 0,0 0,0 0,0 0,-23.2894 0,-23.2894 0,-23.2894 0,0 -8.73373,0 -8.73373,0 0,0 0,0 0,14.5561 0,0 0,0 0,0 -23.28945,0 -23.28945,0 -23.28945,0 0,0 0,-14.5561 0,-14.5561 0,0 0,0 -23.28983,0 0,0 0,0 0,0 0,14.5561 0,14.5561 0,14.5561 0,0 -23.28945,0 -23.28945,0 0,0 0,0 0,-14.5561 0,0 0,0 0,0 -23.28944,0 -23.28944,0 -23.28944,0 0,0 0,23.2894 0,23.2894 0,0 0,0 14.55571,0 0,0 0,0 0,0 0,23.2899 0,23.2899 0,23.2899 0,0 -14.55571,0 -14.55571,0 0,0 0,0 0,23.2894 0,0 0,0 0,0 14.55571,0 14.55571,0 14.55571,0 0,0 0,23.2895 0,23.2895 0,0 0,0 -14.55571,0 0,0 0,0 0,0 z"
       style="fill:none;stroke:#000000;stroke-width:0.5"
       id="path51"
       inkscape:connector-curvature="0" />
    <path
       d="m 209.16257,892.57299 c 0,0 -0.0601,1.1905 -0.0601,1.1905 0,0 0,0 -0.1765,1.1558 0,0 0,0 0,0 -0.28687,1.1161 -0.28687,1.1161 -0.28687,1.1161 0,0 -0.39194,1.0696 -0.39194,1.0696 0,0 0,0 -0.4902,1.0178 0,0 0,0 0,0 -0.58356,0.96 -0.58356,0.96 -0.58356,0.96 0,0 -0.67011,0.8965 -0.67011,0.8965 0,0 0,0 -0.75175,0.8274 0,0 0,0 0,0 -0.82696,0.7513 -0.82696,0.7513 -0.82696,0.7513 0,0 -0.8965,0.6705 -0.8965,0.6705 0,0 0,0 -0.96,0.5836 0,0 0,0 0,0 -1.01821,0.4902 -1.01821,0.4902 -1.01821,0.4902 0,0 -1.0696,0.3919 -1.0696,0.3919 0,0 0,0 -1.1161,0.2869 0,0 0,0 0,0 -1.15578,0.1765 -1.15578,0.1765 -1.15578,0.1765 0,0 -1.19055,0.06 -1.19055,0.06 0,0 0,0 -1.19055,-0.06 0,0 0,0 0,0 -1.15616,-0.1765 -1.15616,-0.1765 -1.15616,-0.1765 0,0 -1.11571,-0.2869 -1.11571,-0.2869 0,0 0,0 -1.06999,-0.3919 0,0 0,0 0,0 -1.01782,-0.4902 -1.01782,-0.4902 -1.01782,-0.4902 0,0 -0.96,-0.5836 -0.96,-0.5836 0,0 0,0 -0.89651,-0.6705 0,0 0,0 0,0 -0.82696,-0.7513 -0.82696,-0.7513 -0.82696,-0.7513 0,0 -0.75175,-0.8274 -0.75175,-0.8274 0,0 0,0 -0.67049,-0.8965 0,0 0,0 0,0 -0.58318,-0.96 -0.58318,-0.96 -0.58318,-0.96 0,0 -0.49058,-1.0178 -0.49058,-1.0178 0,0 0,0 -0.39156,-1.0696 0,0 0,0 0,0 -0.28686,-1.1161 -0.28686,-1.1161 -0.28686,-1.1161 0,0 -0.17651,-1.1558 -0.17651,-1.1558 0,0 0,0 -0.0601,-1.1905 0,0 0,0 0,0 0.0601,-1.1906 0.0601,-1.1906 0.0601,-1.1906 0,0 0.17651,-1.1562 0.17651,-1.1562 0,0 0,0 0.28686,-1.1157 0,0 0,0 0,0 0.39156,-1.07 0.39156,-1.07 0.39156,-1.07 0,0 0.49058,-1.0178 0.49058,-1.0178 0,0 0,0 0.58318,-0.96 0,0 0,0 0,0 0.67049,-0.8965 0.67049,-0.8965 0.67049,-0.8965 0,0 0.75175,-0.8269 0.75175,-0.8269 0,0 0,0 0.82696,-0.7518 0,0 0,0 0,0 0.89651,-0.6705 0.89651,-0.6705 0.89651,-0.6705 0,0 0.96,-0.5835 0.96,-0.5835 0,0 0,0 1.01782,-0.4903 0,0 0,0 0,0 1.06999,-0.3919 1.06999,-0.3919 1.06999,-0.3919 0,0 1.11571,-0.2869 1.11571,-0.2869 0,0 0,0 1.15616,-0.1765 0,0 0,0 0,0 1.19055,-0.06 1.19055,-0.06 1.19055,-0.06 0,0 1.19055,0.06 1.19055,0.06 0,0 0,0 1.15578,0.1765 0,0 0,0 0,0 1.1161,0.2869 1.1161,0.2869 1.1161,0.2869 0,0 1.0696,0.3919 1.0696,0.3919 0,0 0,0 1.01821,0.4903 0,0 0,0 0,0 0.96,0.5835 0.96,0.5835 0.96,0.5835 0,0 0.8965,0.6705 0.8965,0.6705 0,0 0,0 0.82696,0.7518 0,0 0,0 0,0 0.75175,0.8269 0.75175,0.8269 0.75175,0.8269 0,0 0.67011,0.8965 0.67011,0.8965 0,0 0,0 0.58356,0.96 0,0 0,0 0,0 0.4902,1.0178 0.4902,1.0178 0.4902,1.0178 0,0 0.39194,1.07 0.39194,1.07 0,0 0,0 0.28687,1.1157 0,0 0,0 0,0 0.1765,1.1562 0.1765,1.1562 0.1765,1.1562 0,0 0.0601,1.1906 0.0601,1.1906 0,0 0,0 0,0 z"
       style="fill:none;stroke:#000000;stroke-width:0.5"
       id="path53"
       inkscape:connector-curvature="0" />
    <path
       d="m 209.16257,938.15029 c 0,0 -0.0601,1.1905 -0.0601,1.1905 0,0 0,0 -0.1765,1.1558 0,0 0,0 0,0 -0.28687,1.1161 -0.28687,1.1161 -0.28687,1.1161 0,0 -0.39194,1.0696 -0.39194,1.0696 0,0 0,0 -0.4902,1.0178 0,0 0,0 0,0 -0.58356,0.96 -0.58356,0.96 -0.58356,0.96 0,0 -0.67011,0.8965 -0.67011,0.8965 0,0 0,0 -0.75175,0.8274 0,0 0,0 0,0 -0.82696,0.7513 -0.82696,0.7513 -0.82696,0.7513 0,0 -0.8965,0.6705 -0.8965,0.6705 0,0 0,0 -0.96,0.5836 0,0 0,0 0,0 -1.01821,0.4902 -1.01821,0.4902 -1.01821,0.4902 0,0 -1.0696,0.3919 -1.0696,0.3919 0,0 0,0 -1.1161,0.2869 0,0 0,0 0,0 -1.15578,0.1765 -1.15578,0.1765 -1.15578,0.1765 0,0 -1.19055,0.06 -1.19055,0.06 0,0 0,0 -1.19055,-0.06 0,0 0,0 0,0 -1.15616,-0.1765 -1.15616,-0.1765 -1.15616,-0.1765 0,0 -1.11571,-0.2869 -1.11571,-0.2869 0,0 0,0 -1.06999,-0.3919 0,0 0,0 0,0 -1.01782,-0.4902 -1.01782,-0.4902 -1.01782,-0.4902 0,0 -0.96,-0.5836 -0.96,-0.5836 0,0 0,0 -0.89651,-0.6705 0,0 0,0 0,0 -0.82696,-0.7513 -0.82696,-0.7513 -0.82696,-0.7513 0,0 -0.75175,-0.8274 -0.75175,-0.8274 0,0 0,0 -0.67049,-0.8965 0,0 0,0 0,0 -0.58318,-0.96 -0.58318,-0.96 -0.58318,-0.96 0,0 -0.49058,-1.0178 -0.49058,-1.0178 0,0 0,0 -0.39156,-1.0696 0,0 0,0 0,0 -0.28686,-1.1161 -0.28686,-1.1161 -0.28686,-1.1161 0,0 -0.17651,-1.1558 -0.17651,-1.1558 0,0 0,0 -0.0601,-1.1905 0,0 0,0 0,0 0.0601,-1.1906 0.0601,-1.1906 0.0601,-1.1906 0,0 0.17651,-1.1558 0.17651,-1.1558 0,0 0,0 0.28686,-1.1161 0,0 0,0 0,0 0.39156,-1.0696 0.39156,-1.0696 0.39156,-1.0696 0,0 0.49058,-1.0178 0.49058,-1.0178 0,0 0,0 0.58318,-0.96 0,0 0,0 0,0 0.67049,-0.8965 0.67049,-0.8965 0.67049,-0.8965 0,0 0.75175,-0.8269 0.75175,-0.8269 0,0 0,0 0.82696,-0.7518 0,0 0,0 0,0 0.89651,-0.6705 0.89651,-0.6705 0.89651,-0.6705 0,0 0.96,-0.5835 0.96,-0.5835 0,0 0,0 1.01782,-0.4903 0,0 0,0 0,0 1.06999,-0.3919 1.06999,-0.3919 1.06999,-0.3919 0,0 1.11571,-0.2869 1.11571,-0.2869 0,0 0,0 1.15616,-0.1765 0,0 0,0 0,0 1.19055,-0.06 1.19055,-0.06 1.19055,-0.06 0,0 1.19055,0.06 1.19055,0.06 0,0 0,0 1.15578,0.1765 0,0 0,0 0,0 1.1161,0.2869 1.1161,0.2869 1.1161,0.2869 0,0 1.0696,0.3919 1.0696,0.3919 0,0 0,0 1.01821,0.4903 0,0 0,0 0,0 0.96,0.5835 0.96,0.5835 0.96,0.5835 0,0 0.8965,0.6705 0.8965,0.6705 0,0 0,0 0.82696,0.7518 0,0 0,0 0,0 0.75175,0.8269 0.75175,0.8269 0.75175,0.8269 0,0 0.67011,0.8965 0.67011,0.8965 0,0 0,0 0.58356,0.96 0,0 0,0 0,0 0.4902,1.0178 0.4902,1.0178 0.4902,1.0178 0,0 0.39194,1.0696 0.39194,1.0696 0,0 0,0 0.28687,1.1161 0,0 0,0 0,0 0.1765,1.1558 0.1765,1.1558 0.1765,1.1558 0,0 0.0601,1.1906 0.0601,1.1906 0,0 0,0 0,0 z"
       style="fill:none;stroke:#000000;stroke-width:0.5"
       id="path55"
       inkscape:connector-curvature="0" />
    <path
       d="m 252.22688,892.72149 c 0,0 -0.0601,1.1905 -0.0601,1.1905 0,0 0,0 -0.1765,1.1558 0,0 0,0 0,0 -0.28687,1.1161 -0.28687,1.1161 -0.28687,1.1161 0,0 -0.39194,1.0696 -0.39194,1.0696 0,0 0,0 -0.4902,1.0178 0,0 0,0 0,0 -0.58356,0.96 -0.58356,0.96 -0.58356,0.96 0,0 -0.67011,0.8965 -0.67011,0.8965 0,0 0,0 -0.75175,0.8274 0,0 0,0 0,0 -0.82696,0.7514 -0.82696,0.7514 -0.82696,0.7514 0,0 -0.8965,0.6704 -0.8965,0.6704 0,0 0,0 -0.96,0.5836 0,0 0,0 0,0 -1.01821,0.4902 -1.01821,0.4902 -1.01821,0.4902 0,0 -1.0696,0.3919 -1.0696,0.3919 0,0 0,0 -1.1161,0.2869 0,0 0,0 0,0 -1.15578,0.1765 -1.15578,0.1765 -1.15578,0.1765 0,0 -1.19055,0.06 -1.19055,0.06 0,0 0,0 -1.19055,-0.06 0,0 0,0 0,0 -1.15616,-0.1765 -1.15616,-0.1765 -1.15616,-0.1765 0,0 -1.11571,-0.2869 -1.11571,-0.2869 0,0 0,0 -1.06999,-0.3919 0,0 0,0 0,0 -1.01783,-0.4902 -1.01783,-0.4902 -1.01783,-0.4902 0,0 -0.96037,-0.5836 -0.96037,-0.5836 0,0 0,0 -0.89651,-0.6704 0,0 0,0 0,0 -0.82696,-0.7514 -0.82696,-0.7514 -0.82696,-0.7514 0,0 -0.75137,-0.8274 -0.75137,-0.8274 0,0 0,0 -0.67049,-0.8965 0,0 0,0 0,0 -0.58356,-0.96 -0.58356,-0.96 -0.58356,-0.96 0,0 -0.4902,-1.0178 -0.4902,-1.0178 0,0 0,0 -0.39194,-1.0696 0,0 0,0 0,0 -0.28686,-1.1161 -0.28686,-1.1161 -0.28686,-1.1161 0,0 -0.17651,-1.1558 -0.17651,-1.1558 0,0 0,0 -0.0601,-1.1905 0,0 0,0 0,0 0.0601,-1.1906 0.0601,-1.1906 0.0601,-1.1906 0,0 0.17651,-1.1561 0.17651,-1.1561 0,0 0,0 0.28686,-1.1157 0,0 0,0 0,0 0.39194,-1.07 0.39194,-1.07 0.39194,-1.07 0,0 0.4902,-1.0178 0.4902,-1.0178 0,0 0,0 0.58356,-0.96 0,0 0,0 0,0 0.67049,-0.8966 0.67049,-0.8966 0.67049,-0.8966 0,0 0.75137,-0.8269 0.75137,-0.8269 0,0 0,0 0.82696,-0.7518 0,0 0,0 0,0 0.89651,-0.6705 0.89651,-0.6705 0.89651,-0.6705 0,0 0.96037,-0.5835 0.96037,-0.5835 0,0 0,0 1.01783,-0.4902 0,0 0,0 0,0 1.06999,-0.392 1.06999,-0.392 1.06999,-0.392 0,0 1.11571,-0.2868 1.11571,-0.2868 0,0 0,0 1.15616,-0.1765 0,0 0,0 0,0 1.19055,-0.06 1.19055,-0.06 1.19055,-0.06 0,0 1.19055,0.06 1.19055,0.06 0,0 0,0 1.15578,0.1765 0,0 0,0 0,0 1.1161,0.2868 1.1161,0.2868 1.1161,0.2868 0,0 1.0696,0.392 1.0696,0.392 0,0 0,0 1.01821,0.4902 0,0 0,0 0,0 0.96,0.5835 0.96,0.5835 0.96,0.5835 0,0 0.8965,0.6705 0.8965,0.6705 0,0 0,0 0.82696,0.7518 0,0 0,0 0,0 0.75175,0.8269 0.75175,0.8269 0.75175,0.8269 0,0 0.67011,0.8966 0.67011,0.8966 0,0 0,0 0.58356,0.96 0,0 0,0 0,0 0.4902,1.0178 0.4902,1.0178 0.4902,1.0178 0,0 0.39194,1.07 0.39194,1.07 0,0 0,0 0.28687,1.1157 0,0 0,0 0,0 0.1765,1.1561 0.1765,1.1561 0.1765,1.1561 0,0 0.0601,1.1906 0.0601,1.1906 0,0 0,0 0,0 z"
       style="fill:none;stroke:#000000;stroke-width:0.5"
       id="path57"
       inkscape:connector-curvature="0" />
    <path
       d="m 252.22688,938.29879 c 0,0 -0.0601,1.1906 -0.0601,1.1906 0,0 0,0 -0.1765,1.1557 0,0 0,0 0,0 -0.28687,1.1161 -0.28687,1.1161 -0.28687,1.1161 0,0 -0.39194,1.0696 -0.39194,1.0696 0,0 0,0 -0.4902,1.0179 0,0 0,0 0,0 -0.58356,0.96 -0.58356,0.96 -0.58356,0.96 0,0 -0.67011,0.8965 -0.67011,0.8965 0,0 0,0 -0.75175,0.8273 0,0 0,0 0,0 -0.82696,0.7514 -0.82696,0.7514 -0.82696,0.7514 0,0 -0.8965,0.6705 -0.8965,0.6705 0,0 0,0 -0.96,0.5835 0,0 0,0 0,0 -1.01821,0.4902 -1.01821,0.4902 -1.01821,0.4902 0,0 -1.0696,0.392 -1.0696,0.392 0,0 0,0 -1.1161,0.2868 0,0 0,0 0,0 -1.15578,0.1765 -1.15578,0.1765 -1.15578,0.1765 0,0 -1.19055,0.06 -1.19055,0.06 0,0 0,0 -1.19055,-0.06 0,0 0,0 0,0 -1.15616,-0.1765 -1.15616,-0.1765 -1.15616,-0.1765 0,0 -1.11571,-0.2868 -1.11571,-0.2868 0,0 0,0 -1.06999,-0.392 0,0 0,0 0,0 -1.01783,-0.4902 -1.01783,-0.4902 -1.01783,-0.4902 0,0 -0.96037,-0.5835 -0.96037,-0.5835 0,0 0,0 -0.89651,-0.6705 0,0 0,0 0,0 -0.82696,-0.7514 -0.82696,-0.7514 -0.82696,-0.7514 0,0 -0.75137,-0.8273 -0.75137,-0.8273 0,0 0,0 -0.67049,-0.8965 0,0 0,0 0,0 -0.58356,-0.96 -0.58356,-0.96 -0.58356,-0.96 0,0 -0.4902,-1.0179 -0.4902,-1.0179 0,0 0,0 -0.39194,-1.0696 0,0 0,0 0,0 -0.28686,-1.1161 -0.28686,-1.1161 -0.28686,-1.1161 0,0 -0.17651,-1.1557 -0.17651,-1.1557 0,0 0,0 -0.0601,-1.1906 0,0 0,0 0,0 0.0601,-1.1905 0.0601,-1.1905 0.0601,-1.1905 0,0 0.17651,-1.1558 0.17651,-1.1558 0,0 0,0 0.28686,-1.1161 0,0 0,0 0,0 0.39194,-1.0696 0.39194,-1.0696 0.39194,-1.0696 0,0 0.4902,-1.0179 0.4902,-1.0179 0,0 0,0 0.58356,-0.96 0,0 0,0 0,0 0.67049,-0.8965 0.67049,-0.8965 0.67049,-0.8965 0,0 0.75137,-0.8269 0.75137,-0.8269 0,0 0,0 0.82696,-0.7518 0,0 0,0 0,0 0.89651,-0.6704 0.89651,-0.6704 0.89651,-0.6704 0,0 0.96037,-0.5836 0.96037,-0.5836 0,0 0,0 1.01783,-0.4902 0,0 0,0 0,0 1.06999,-0.392 1.06999,-0.392 1.06999,-0.392 0,0 1.11571,-0.2868 1.11571,-0.2868 0,0 0,0 1.15616,-0.1765 0,0 0,0 0,0 1.19055,-0.06 1.19055,-0.06 1.19055,-0.06 0,0 1.19055,0.06 1.19055,0.06 0,0 0,0 1.15578,0.1765 0,0 0,0 0,0 1.1161,0.2868 1.1161,0.2868 1.1161,0.2868 0,0 1.0696,0.392 1.0696,0.392 0,0 0,0 1.01821,0.4902 0,0 0,0 0,0 0.96,0.5836 0.96,0.5836 0.96,0.5836 0,0 0.8965,0.6704 0.8965,0.6704 0,0 0,0 0.82696,0.7518 0,0 0,0 0,0 0.75175,0.8269 0.75175,0.8269 0.75175,0.8269 0,0 0.67011,0.8965 0.67011,0.8965 0,0 0,0 0.58356,0.96 0,0 0,0 0,0 0.4902,1.0179 0.4902,1.0179 0.4902,1.0179 0,0 0.39194,1.0696 0.39194,1.0696 0,0 0,0 0.28687,1.1161 0,0 0,0 0,0 0.1765,1.1558 0.1765,1.1558 0.1765,1.1558 0,0 0.0601,1.1905 0.0601,1.1905 0,0 0,0 0,0 z"
       style="fill:none;stroke:#000000;stroke-width:0.5"
       id="path59"
       inkscape:connector-curvature="0" />
    <path
       d="m 230.26253,915.56609 c 0,0 -0.0601,1.1905 -0.0601,1.1905 0,0 0,0 -0.1765,1.1562 0,0 0,0 0,0 -0.28687,1.1157 -0.28687,1.1157 -0.28687,1.1157 0,0 -0.39155,1.07 -0.39155,1.07 0,0 0,0 -0.49059,1.0178 0,0 0,0 0,0 -0.58318,0.96 -0.58318,0.96 -0.58318,0.96 0,0 -0.67049,0.8965 -0.67049,0.8965 0,0 0,0 -0.75174,0.827 0,0 0,0 0,0 -0.82697,0.7517 -0.82697,0.7517 -0.82697,0.7517 0,0 -0.8965,0.6705 -0.8965,0.6705 0,0 0,0 -0.96,0.5836 0,0 0,0 0,0 -1.01783,0.4902 -1.01783,0.4902 -1.01783,0.4902 0,0 -1.06998,0.3919 -1.06998,0.3919 0,0 0,0 -1.11572,0.2869 0,0 0,0 0,0 -1.15615,0.1765 -1.15615,0.1765 -1.15615,0.1765 0,0 -1.19056,0.06 -1.19056,0.06 0,0 0,0 -1.19055,-0.06 0,0 0,0 0,0 -1.15615,-0.1765 -1.15615,-0.1765 -1.15615,-0.1765 0,0 -1.11572,-0.2869 -1.11572,-0.2869 0,0 0,0 -1.06998,-0.3919 0,0 0,0 0,0 -1.01783,-0.4902 -1.01783,-0.4902 -1.01783,-0.4902 0,0 -0.96,-0.5836 -0.96,-0.5836 0,0 0,0 -0.89651,-0.6705 0,0 0,0 0,0 -0.82696,-0.7517 -0.82696,-0.7517 -0.82696,-0.7517 0,0 -0.75174,-0.827 -0.75174,-0.827 0,0 0,0 -0.67049,-0.8965 0,0 0,0 0,0 -0.58318,-0.96 -0.58318,-0.96 -0.58318,-0.96 0,0 -0.49059,-1.0178 -0.49059,-1.0178 0,0 0,0 -0.39156,-1.07 0,0 0,0 0,0 -0.28686,-1.1157 -0.28686,-1.1157 -0.28686,-1.1157 0,0 -0.17651,-1.1562 -0.17651,-1.1562 0,0 0,0 -0.0601,-1.1905 0,0 0,0 0,0 0.0601,-1.1906 0.0601,-1.1906 0.0601,-1.1906 0,0 0.17651,-1.1557 0.17651,-1.1557 0,0 0,0 0.28686,-1.1161 0,0 0,0 0,0 0.39156,-1.0696 0.39156,-1.0696 0.39156,-1.0696 0,0 0.49059,-1.0179 0.49059,-1.0179 0,0 0,0 0.58318,-0.96 0,0 0,0 0,0 0.67049,-0.8965 0.67049,-0.8965 0.67049,-0.8965 0,0 0.75174,-0.8269 0.75174,-0.8269 0,0 0,0 0.82696,-0.7518 0,0 0,0 0,0 0.89651,-0.6705 0.89651,-0.6705 0.89651,-0.6705 0,0 0.96,-0.5835 0.96,-0.5835 0,0 0,0 1.01783,-0.4902 0,0 0,0 0,0 1.06998,-0.392 1.06998,-0.392 1.06998,-0.392 0,0 1.11572,-0.2868 1.11572,-0.2868 0,0 0,0 1.15615,-0.1765 0,0 0,0 0,0 1.19055,-0.06 1.19055,-0.06 1.19055,-0.06 0,0 1.19056,0.06 1.19056,0.06 0,0 0,0 1.15615,0.1765 0,0 0,0 0,0 1.11572,0.2868 1.11572,0.2868 1.11572,0.2868 0,0 1.06998,0.392 1.06998,0.392 0,0 0,0 1.01783,0.4902 0,0 0,0 0,0 0.96,0.5835 0.96,0.5835 0.96,0.5835 0,0 0.8965,0.6705 0.8965,0.6705 0,0 0,0 0.82697,0.7518 0,0 0,0 0,0 0.75174,0.8269 0.75174,0.8269 0.75174,0.8269 0,0 0.67049,0.8965 0.67049,0.8965 0,0 0,0 0.58318,0.96 0,0 0,0 0,0 0.49059,1.0179 0.49059,1.0179 0.49059,1.0179 0,0 0.39155,1.0696 0.39155,1.0696 0,0 0,0 0.28687,1.1161 0,0 0,0 0,0 0.1765,1.1557 0.1765,1.1557 0.1765,1.1557 0,0 0.0601,1.1906 0.0601,1.1906 0,0 0,0 0,0 z"
       style="fill:none;stroke:#000000;stroke-width:0.5"
       id="path61"
       inkscape:connector-curvature="0" />
    <path
       d="m 19.923134,1099.2519 c 0,0 0,-23.2898 0,-23.2898 0,0 0,0 14.55572,0 0,0 0,0 0,0 0,-23.2895 0,-23.2895 0,-23.2895 0,0 -14.55572,0 -14.55572,0 0,0 0,0 0,-23.2894 0,0 0,0 0,0 14.55572,0 14.55572,0 14.55572,0 0,0 0,-23.2899 0,-23.2899 0,0 0,0 -14.55572,0 0,0 0,0 0,0 0,-23.28941 0,-23.28941 0,-23.28941 0,0 23.28945,0 23.28945,0 0,0 0,0 0,14.5561 0,0 0,0 0,0 23.28945,0 23.28945,0 23.28945,0 0,0 0,-14.5561 0,-14.5561 0,0 0,0 23.28982,0 0,0 0,0 0,0 0,14.5561 0,14.5561 0,14.5561 0,0 23.289446,0 23.289446,0 0,0 0,0 0,-14.5561 0,0 0,0 0,0 8.73374,0 8.73374,0 8.73374,0 0,0 0,23.28941 0,23.28941 0,0 0,0 14.55571,0 0,0 0,0 0,0 0,23.2899 0,23.2899 0,23.2899 0,0 -14.55571,0 -14.55571,0 0,0 0,0 0,23.2894 0,0 0,0 0,0 14.55571,0 14.55571,0 14.55571,0 0,0 0,23.2895 0,23.2895 0,0 0,0 -14.55571,0 0,0 0,0 0,0 0,23.2898 0,23.2898 0,23.2898 0,0 -8.73374,0 -8.73374,0 0,0 0,0 0,-14.5561 0,0 0,0 0,0 -23.289446,0 -23.289446,0 -23.289446,0 0,0 0,14.5561 0,14.5561 0,0 0,0 -23.28982,0 0,0 0,0 0,0 0,-14.5561 0,-14.5561 0,-14.5561 0,0 -23.28945,0 -23.28945,0 0,0 0,0 0,14.5561 0,0 0,0 0,0 z"
       style="fill:none;stroke:#000000;stroke-width:0.5"
       id="path63"
       inkscape:connector-curvature="0" />
    <path
       d="m 67.728484,1017.5461 c 0,0 -0.0601,1.1905 -0.0601,1.1905 0,0 0,0 -0.17651,1.1558 0,0 0,0 0,0 -0.28686,1.1161 -0.28686,1.1161 -0.28686,1.1161 0,0 -0.39194,1.0696 -0.39194,1.0696 0,0 0,0 -0.4902,1.0178 0,0 0,0 0,0 -0.58356,0.96 -0.58356,0.96 -0.58356,0.96 0,0 -0.67011,0.8965 -0.67011,0.8965 0,0 0,0 -0.75175,0.8274 0,0 0,0 0,0 -0.82696,0.7513 -0.82696,0.7513 -0.82696,0.7513 0,0 -0.8965,0.6705 -0.8965,0.6705 0,0 0,0 -0.96001,0.5836 0,0 0,0 0,0 -1.0182,0.4902 -1.0182,0.4902 -1.0182,0.4902 0,0 -1.06961,0.3919 -1.06961,0.3919 0,0 0,0 -1.11609,0.2869 0,0 0,0 0,0 -1.15578,0.1765 -1.15578,0.1765 -1.15578,0.1765 0,0 -1.19055,0.06 -1.19055,0.06 0,0 0,0 -1.19055,-0.06 0,0 0,0 0,0 -1.15616,-0.1765 -1.15616,-0.1765 -1.15616,-0.1765 0,0 -1.11572,-0.2869 -1.11572,-0.2869 0,0 0,0 -1.06998,-0.3919 0,0 0,0 0,0 -1.01783,-0.4902 -1.01783,-0.4902 -1.01783,-0.4902 0,0 -0.96,-0.5836 -0.96,-0.5836 0,0 0,0 -0.8965,-0.6705 0,0 0,0 0,0 -0.82696,-0.7513 -0.82696,-0.7513 -0.82696,-0.7513 0,0 -0.75175,-0.8274 -0.75175,-0.8274 0,0 0,0 -0.67049,-0.8965 0,0 0,0 0,0 -0.58318,-0.96 -0.58318,-0.96 -0.58318,-0.96 0,0 -0.49058,-1.0178 -0.49058,-1.0178 0,0 0,0 -0.39156,-1.0696 0,0 0,0 0,0 -0.28687,-1.1161 -0.28687,-1.1161 -0.28687,-1.1161 0,0 -0.1765,-1.1558 -0.1765,-1.1558 0,0 0,0 -0.0601,-1.1905 0,0 0,0 0,0 0.0601,-1.1906 0.0601,-1.1906 0.0601,-1.1906 0,0 0.1765,-1.1558 0.1765,-1.1558 0,0 0,0 0.28687,-1.1161 0,0 0,0 0,0 0.39156,-1.0696 0.39156,-1.0696 0.39156,-1.0696 0,0 0.49058,-1.0178 0.49058,-1.0178 0,0 0,0 0.58318,-0.96 0,0 0,0 0,0 0.67049,-0.8965 0.67049,-0.8965 0.67049,-0.8965 0,0 0.75175,-0.827 0.75175,-0.827 0,0 0,0 0.82696,-0.7517 0,0 0,0 0,0 0.8965,-0.6705 0.8965,-0.6705 0.8965,-0.6705 0,0 0.96,-0.5836 0.96,-0.5836 0,0 0,0 1.01783,-0.4902 0,0 0,0 0,0 1.06998,-0.3919 1.06998,-0.3919 1.06998,-0.3919 0,0 1.11572,-0.2869 1.11572,-0.2869 0,0 0,0 1.15616,-0.1765 0,0 0,0 0,0 1.19055,-0.06 1.19055,-0.06 1.19055,-0.06 0,0 1.19055,0.06 1.19055,0.06 0,0 0,0 1.15578,0.1765 0,0 0,0 0,0 1.11609,0.2869 1.11609,0.2869 1.11609,0.2869 0,0 1.06961,0.3919 1.06961,0.3919 0,0 0,0 1.0182,0.4902 0,0 0,0 0,0 0.96001,0.5836 0.96001,0.5836 0.96001,0.5836 0,0 0.8965,0.6705 0.8965,0.6705 0,0 0,0 0.82696,0.7517 0,0 0,0 0,0 0.75175,0.827 0.75175,0.827 0.75175,0.827 0,0 0.67011,0.8965 0.67011,0.8965 0,0 0,0 0.58356,0.96 0,0 0,0 0,0 0.4902,1.0178 0.4902,1.0178 0.4902,1.0178 0,0 0.39194,1.0696 0.39194,1.0696 0,0 0,0 0.28686,1.1161 0,0 0,0 0,0 0.17651,1.1558 0.17651,1.1558 0.17651,1.1558 0,0 0.0601,1.1906 0.0601,1.1906 0,0 0,0 0,0 z"
       style="fill:none;stroke:#000000;stroke-width:0.5"
       id="path65"
       inkscape:connector-curvature="0" />
    <path
       d="m 113.16634,1063.1238 c 0,0 -0.0601,1.1905 -0.0601,1.1905 0,0 0,0 -0.17651,1.1558 0,0 0,0 0,0 -0.28686,1.1161 -0.28686,1.1161 -0.28686,1.1161 0,0 -0.39194,1.0696 -0.39194,1.0696 0,0 0,0 -0.49021,1.0178 0,0 0,0 0,0 -0.58355,0.96 -0.58355,0.96 -0.58355,0.96 0,0 -0.67049,0.8965 -0.67049,0.8965 0,0 0,0 -0.75137,0.8274 0,0 0,0 0,0 -0.82696,0.7513 -0.82696,0.7513 -0.82696,0.7513 0,0 -0.89651,0.6705 -0.89651,0.6705 0,0 0,0 -0.96037,0.5836 0,0 0,0 0,0 -1.01783,0.4902 -1.01783,0.4902 -1.01783,0.4902 0,0 -1.06998,0.3919 -1.06998,0.3919 0,0 0,0 -1.11572,0.2869 0,0 0,0 0,0 -1.15616,0.1765 -1.15616,0.1765 -1.15616,0.1765 0,0 -1.19055,0.06 -1.19055,0.06 0,0 0,0 -1.19055,-0.06 0,0 0,0 0,0 -1.155776,-0.1765 -1.155776,-0.1765 -1.155776,-0.1765 0,0 -1.1161,-0.2869 -1.1161,-0.2869 0,0 0,0 -1.0696,-0.3919 0,0 0,0 0,0 -1.01821,-0.4902 -1.01821,-0.4902 -1.01821,-0.4902 0,0 -0.96,-0.5836 -0.96,-0.5836 0,0 0,0 -0.8965,-0.6705 0,0 0,0 0,0 -0.82696,-0.7513 -0.82696,-0.7513 -0.82696,-0.7513 0,0 -0.75175,-0.8274 -0.75175,-0.8274 0,0 0,0 -0.67011,-0.8965 0,0 0,0 0,0 -0.58356,-0.96 -0.58356,-0.96 -0.58356,-0.96 0,0 -0.4902,-1.0178 -0.4902,-1.0178 0,0 0,0 -0.39194,-1.0696 0,0 0,0 0,0 -0.28687,-1.1161 -0.28687,-1.1161 -0.28687,-1.1161 0,0 -0.1765,-1.1558 -0.1765,-1.1558 0,0 0,0 -0.0601,-1.1905 0,0 0,0 0,0 0.0601,-1.1906 0.0601,-1.1906 0.0601,-1.1906 0,0 0.1765,-1.1562 0.1765,-1.1562 0,0 0,0 0.28687,-1.1157 0,0 0,0 0,0 0.39194,-1.07 0.39194,-1.07 0.39194,-1.07 0,0 0.4902,-1.0178 0.4902,-1.0178 0,0 0,0 0.58356,-0.96 0,0 0,0 0,0 0.67011,-0.8965 0.67011,-0.8965 0.67011,-0.8965 0,0 0.75175,-0.8269 0.75175,-0.8269 0,0 0,0 0.82696,-0.7518 0,0 0,0 0,0 0.8965,-0.6705 0.8965,-0.6705 0.8965,-0.6705 0,0 0.96,-0.5835 0.96,-0.5835 0,0 0,0 1.01821,-0.4902 0,0 0,0 0,0 1.0696,-0.392 1.0696,-0.392 1.0696,-0.392 0,0 1.1161,-0.2869 1.1161,-0.2869 0,0 0,0 1.155776,-0.1765 0,0 0,0 0,0 1.19055,-0.06 1.19055,-0.06 1.19055,-0.06 0,0 1.19055,0.06 1.19055,0.06 0,0 0,0 1.15616,0.1765 0,0 0,0 0,0 1.11572,0.2869 1.11572,0.2869 1.11572,0.2869 0,0 1.06998,0.392 1.06998,0.392 0,0 0,0 1.01783,0.4902 0,0 0,0 0,0 0.96037,0.5835 0.96037,0.5835 0.96037,0.5835 0,0 0.89651,0.6705 0.89651,0.6705 0,0 0,0 0.82696,0.7518 0,0 0,0 0,0 0.75137,0.8269 0.75137,0.8269 0.75137,0.8269 0,0 0.67049,0.8965 0.67049,0.8965 0,0 0,0 0.58355,0.96 0,0 0,0 0,0 0.49021,1.0178 0.49021,1.0178 0.49021,1.0178 0,0 0.39194,1.07 0.39194,1.07 0,0 0,0 0.28686,1.1157 0,0 0,0 0,0 0.17651,1.1562 0.17651,1.1562 0.17651,1.1562 0,0 0.0601,1.1906 0.0601,1.1906 0,0 0,0 0,0 z"
       style="fill:none;stroke:#000000;stroke-width:0.5"
       id="path67"
       inkscape:connector-curvature="0" />
    <path
       d="m 90.369744,1040.5543 c 0,0 -0.0601,1.1906 -0.0601,1.1906 0,0 0,0 -0.17651,1.1557 0,0 0,0 0,0 -0.28686,1.1161 -0.28686,1.1161 -0.28686,1.1161 0,0 -0.39156,1.0696 -0.39156,1.0696 0,0 0,0 -0.49058,1.0179 0,0 0,0 0,0 -0.58318,0.96 -0.58318,0.96 -0.58318,0.96 0,0 -0.67049,0.8965 -0.67049,0.8965 0,0 0,0 -0.75175,0.8273 0,0 0,0 0,0 -0.82696,0.7514 -0.82696,0.7514 -0.82696,0.7514 0,0 -0.89651,0.6705 -0.89651,0.6705 0,0 0,0 -0.96,0.5835 0,0 0,0 0,0 -1.01782,0.4902 -1.01782,0.4902 -1.01782,0.4902 0,0 -1.06999,0.392 -1.06999,0.392 0,0 0,0 -1.11571,0.2868 0,0 0,0 0,0 -1.15616,0.1765 -1.15616,0.1765 -1.15616,0.1765 0,0 -1.19055,0.06 -1.19055,0.06 0,0 0,0 -1.19055,-0.06 0,0 0,0 0,0 -1.15578,-0.1765 -1.15578,-0.1765 -1.15578,-0.1765 0,0 -1.1161,-0.2868 -1.1161,-0.2868 0,0 0,0 -1.0696,-0.392 0,0 0,0 0,0 -1.01821,-0.4902 -1.01821,-0.4902 -1.01821,-0.4902 0,0 -0.96,-0.5835 -0.96,-0.5835 0,0 0,0 -0.8965,-0.6705 0,0 0,0 0,0 -0.82696,-0.7514 -0.82696,-0.7514 -0.82696,-0.7514 0,0 -0.75175,-0.8273 -0.75175,-0.8273 0,0 0,0 -0.67011,-0.8965 0,0 0,0 0,0 -0.58356,-0.96 -0.58356,-0.96 -0.58356,-0.96 0,0 -0.4902,-1.0179 -0.4902,-1.0179 0,0 0,0 -0.39194,-1.0696 0,0 0,0 0,0 -0.28687,-1.1161 -0.28687,-1.1161 -0.28687,-1.1161 0,0 -0.1765,-1.1557 -0.1765,-1.1557 0,0 0,0 -0.0601,-1.1906 0,0 0,0 0,0 0.0601,-1.1905 0.0601,-1.1905 0.0601,-1.1905 0,0 0.1765,-1.1558 0.1765,-1.1558 0,0 0,0 0.28687,-1.1161 0,0 0,0 0,0 0.39194,-1.0696 0.39194,-1.0696 0.39194,-1.0696 0,0 0.4902,-1.0182 0.4902,-1.0182 0,0 0,0 0.58356,-0.96 0,0 0,0 0,0 0.67011,-0.8965 0.67011,-0.8965 0.67011,-0.8965 0,0 0.75175,-0.827 0.75175,-0.827 0,0 0,0 0.82696,-0.7517 0,0 0,0 0,0 0.8965,-0.6702 0.8965,-0.6702 0.8965,-0.6702 0,0 0.96,-0.5835 0.96,-0.5835 0,0 0,0 1.01821,-0.4902 0,0 0,0 0,0 1.0696,-0.392 1.0696,-0.392 1.0696,-0.392 0,0 1.1161,-0.2868 1.1161,-0.2868 0,0 0,0 1.15578,-0.1765 0,0 0,0 0,0 1.19055,-0.06 1.19055,-0.06 1.19055,-0.06 0,0 1.19055,0.06 1.19055,0.06 0,0 0,0 1.15616,0.1765 0,0 0,0 0,0 1.11571,0.2868 1.11571,0.2868 1.11571,0.2868 0,0 1.06999,0.392 1.06999,0.392 0,0 0,0 1.01782,0.4902 0,0 0,0 0,0 0.96,0.5835 0.96,0.5835 0.96,0.5835 0,0 0.89651,0.6702 0.89651,0.6702 0,0 0,0 0.82696,0.7517 0,0 0,0 0,0 0.75175,0.827 0.75175,0.827 0.75175,0.827 0,0 0.67049,0.8965 0.67049,0.8965 0,0 0,0 0.58318,0.96 0,0 0,0 0,0 0.49058,1.0182 0.49058,1.0182 0.49058,1.0182 0,0 0.39156,1.0696 0.39156,1.0696 0,0 0,0 0.28686,1.1161 0,0 0,0 0,0 0.17651,1.1558 0.17651,1.1558 0.17651,1.1558 0,0 0.0601,1.1905 0.0601,1.1905 0,0 0,0 0,0 z"
       style="fill:none;stroke:#000000;stroke-width:0.5"
       id="path69"
       inkscape:connector-curvature="0" />
    <path
       d="m 32.478854,833.86769 c 0,0 0,-8.7334 0,-8.7334 0,0 0,0 -14.55572,0 0,0 0,0 0,0 0,-23.2898 0,-23.2898 0,-23.2898 0,0 14.55572,0 14.55572,0 0,0 0,0 0,-23.2894 0,0 0,0 0,0 -14.55572,0 -14.55572,0 -14.55572,0 0,0 0,-23.2895 0,-23.2895 0,0 0,0 14.55572,0 0,0 0,0 0,0 0,-8.73371 0,-8.73371 0,-8.73371 0,0 8.73373,0 8.73373,0 0,0 0,0 0,-14.5561 0,0 0,0 0,0 23.28983,0 23.28983,0 23.28983,0 0,0 0,14.5561 0,14.5561 0,0 0,0 23.28944,0 0,0 0,0 0,0 0,-14.5561 0,-14.5561 0,-14.5561 0,0 23.289446,0 23.289446,0 0,0 0,0 0,14.5561 0,0 0,0 0,0 8.73374,0 8.73374,0 8.73374,0 0,0 0,8.73371 0,8.73371 0,0 0,0 14.55609,0 0,0 0,0 0,0 0,23.2895 0,23.2895 0,23.2895 0,0 -14.55609,0 -14.55609,0 0,0 0,0 0,23.2894 0,0 0,0 0,0 14.55609,0 14.55609,0 14.55609,0 0,0 0,23.2898 0,23.2898 0,0 0,0 -14.55609,0 0,0 0,0 0,0 0,8.7334 0,8.7334 0,8.7334 0,0 -8.73374,0 -8.73374,0 0,0 0,0 0,14.5561 0,0 0,0 0,0 -23.289446,0 -23.289446,0 -23.289446,0 0,0 0,-14.5561 0,-14.5561 0,0 0,0 -23.28944,0 0,0 0,0 0,0 0,14.5561 0,14.5561 0,14.5561 0,0 -23.28983,0 -23.28983,0 0,0 0,0 0,-14.5561 0,0 0,0 0,0 z"
       style="fill:none;stroke:#000000;stroke-width:0.5"
       id="path71"
       inkscape:connector-curvature="0" />
    <path
       d="m 87.562064,789.63359 c 0,0 -0.0601,1.1906 -0.0601,1.1906 0,0 0,0 -0.17651,1.1557 0,0 0,0 0,0 -0.28686,1.1161 -0.28686,1.1161 -0.28686,1.1161 0,0 -0.39156,1.0696 -0.39156,1.0696 0,0 0,0 -0.49059,1.0179 0,0 0,0 0,0 -0.58318,0.96 -0.58318,0.96 -0.58318,0.96 0,0 -0.67049,0.8965 -0.67049,0.8965 0,0 0,0 -0.75174,0.8273 0,0 0,0 0,0 -0.82696,0.7514 -0.82696,0.7514 -0.82696,0.7514 0,0 -0.89651,0.6705 -0.89651,0.6705 0,0 0,0 -0.96,0.5835 0,0 0,0 0,0 -1.01783,0.4902 -1.01783,0.4902 -1.01783,0.4902 0,0 -1.06998,0.392 -1.06998,0.392 0,0 0,0 -1.11572,0.2868 0,0 0,0 0,0 -1.15615,0.1765 -1.15615,0.1765 -1.15615,0.1765 0,0 -1.19055,0.06 -1.19055,0.06 0,0 0,0 -1.19056,-0.06 0,0 0,0 0,0 -1.15615,-0.1765 -1.15615,-0.1765 -1.15615,-0.1765 0,0 -1.11572,-0.2868 -1.11572,-0.2868 0,0 0,0 -1.06998,-0.392 0,0 0,0 0,0 -1.01783,-0.4902 -1.01783,-0.4902 -1.01783,-0.4902 0,0 -0.96,-0.5835 -0.96,-0.5835 0,0 0,0 -0.8965,-0.6705 0,0 0,0 0,0 -0.82696,-0.7514 -0.82696,-0.7514 -0.82696,-0.7514 0,0 -0.75175,-0.8273 -0.75175,-0.8273 0,0 0,0 -0.67049,-0.8965 0,0 0,0 0,0 -0.58318,-0.96 -0.58318,-0.96 -0.58318,-0.96 0,0 -0.49059,-1.0179 -0.49059,-1.0179 0,0 0,0 -0.39155,-1.0696 0,0 0,0 0,0 -0.28687,-1.1161 -0.28687,-1.1161 -0.28687,-1.1161 0,0 -0.1765,-1.1557 -0.1765,-1.1557 0,0 0,0 -0.0601,-1.1906 0,0 0,0 0,0 0.0601,-1.1905 0.0601,-1.1905 0.0601,-1.1905 0,0 0.1765,-1.1558 0.1765,-1.1558 0,0 0,0 0.28687,-1.1161 0,0 0,0 0,0 0.39155,-1.0696 0.39155,-1.0696 0.39155,-1.0696 0,0 0.49059,-1.0178 0.49059,-1.0178 0,0 0,0 0.58318,-0.96 0,0 0,0 0,0 0.67049,-0.8966 0.67049,-0.8966 0.67049,-0.8966 0,0 0.75175,-0.8269 0.75175,-0.8269 0,0 0,0 0.82696,-0.7518 0,0 0,0 0,0 0.8965,-0.6704 0.8965,-0.6704 0.8965,-0.6704 0,0 0.96,-0.5836 0.96,-0.5836 0,0 0,0 1.01783,-0.4902 0,0 0,0 0,0 1.06998,-0.3919 1.06998,-0.3919 1.06998,-0.3919 0,0 1.11572,-0.2869 1.11572,-0.2869 0,0 0,0 1.15615,-0.1765 0,0 0,0 0,0 1.19056,-0.06 1.19056,-0.06 1.19056,-0.06 0,0 1.19055,0.06 1.19055,0.06 0,0 0,0 1.15615,0.1765 0,0 0,0 0,0 1.11572,0.2869 1.11572,0.2869 1.11572,0.2869 0,0 1.06998,0.3919 1.06998,0.3919 0,0 0,0 1.01783,0.4902 0,0 0,0 0,0 0.96,0.5836 0.96,0.5836 0.96,0.5836 0,0 0.89651,0.6704 0.89651,0.6704 0,0 0,0 0.82696,0.7518 0,0 0,0 0,0 0.75174,0.8269 0.75174,0.8269 0.75174,0.8269 0,0 0.67049,0.8966 0.67049,0.8966 0,0 0,0 0.58318,0.96 0,0 0,0 0,0 0.49059,1.0178 0.49059,1.0178 0.49059,1.0178 0,0 0.39156,1.0696 0.39156,1.0696 0,0 0,0 0.28686,1.1161 0,0 0,0 0,0 0.17651,1.1558 0.17651,1.1558 0.17651,1.1558 0,0 0.0601,1.1905 0.0601,1.1905 0,0 0,0 0,0 z"
       style="fill:none;stroke:#000000;stroke-width:0.5"
       id="path73"
       inkscape:connector-curvature="0" />
  </g>
</svg>
